<svg xmlns="http://www.w3.org/2000/svg" width="211.306" height="36.433" viewBox="0 0 211.306 36.433"><path fill="#82BF00" d="M36.268 36.433H1.058C.474 36.433 0 35.957 0 35.376V1.056C0 .476.475 0 1.057 0H36.27c.58 0 1.055.475 1.055 1.056v34.32c0 .58-.476 1.057-1.057 1.057z"/><path d="M209.726 12.208c-.576.604-1.276.902-2.09.902-.81 0-1.51-.298-2.082-.902-.577-.602-.877-1.322-.877-2.175 0-.848.3-1.57.877-2.17.573-.6 1.27-.9 2.082-.9.815 0 1.515.3 2.09.9.59.598.873 1.322.873 2.17 0 .853-.285 1.573-.874 2.175m1.087-4.077c-.33-.588-.78-1.054-1.344-1.392-.562-.34-1.177-.51-1.835-.51-.65 0-1.253.17-1.828.51-.558.34-1.003.804-1.33 1.393-.33.59-.495 1.23-.495 1.903 0 .683.165 1.32.496 1.91.326.588.77 1.05 1.33 1.396.575.336 1.178.504 1.827.504.658 0 1.273-.168 1.834-.505.563-.345 1.012-.81 1.343-1.398.328-.588.493-1.226.493-1.91 0-.672-.165-1.31-.493-1.9m-3.322 1.474h-.418v-1.02h.457c.272 0 .453.05.567.142.112.094.158.217.158.367s-.046.275-.172.37c-.108.09-.308.14-.592.14m1.046.753c-.07-.066-.186-.128-.328-.188.36-.09.623-.238.803-.437.16-.2.252-.436.252-.705 0-.352-.112-.63-.335-.837-.226-.21-.584-.31-1.08-.31h-1.756v4.068h.98v-1.6c.055-.01.097-.015.124-.015.12 0 .257.075.38.228.13.15.38.614.76 1.388h1.146c-.42-.77-.626-1.165-.635-1.176-.102-.18-.218-.32-.31-.414M63.054 11.892h-.24v-.01H55.43l-9.063-.026h-5.55V31.97h5.55V16.664h16.447v-.02h.24c.667 0 1.24.59 1.24 1.282v2.34H68.9v-2.34c-.01-3.333-2.615-5.984-5.846-6.034M136.748 21.856c0 5.552 4.375 10.058 9.76 10.058v.004h20.815v-4.786H147.46c-1.994 0-3.705-1.176-4.562-2.883h24.425v-4.776h-24.425c.857-1.714 2.567-2.887 4.56-2.887h19.865v-4.79h-20.816c-5.384 0-9.76 4.502-9.76 10.06M191.745 11.844h-.228v-.01H175.06v-.022h-5.55v20.11h5.55V16.616h16.457v-.017h.228c.668 0 1.24.59 1.24 1.277v2.34h4.604v-2.34c-.01-3.327-2.61-5.983-5.845-6.03M104.72 21.856c0 5.552 4.367 10.058 9.743 10.058h.007l-.007.004h20.832v-4.786h-19.868c-2.82 0-5.11-2.364-5.11-5.275 0-2.913 2.29-5.27 5.11-5.27h19.868v-4.79h-20.832c-5.377 0-9.744 4.502-9.744 10.06M98.613 27.144H76.95c-.664-.003-1.24-.59-1.24-1.282v-.355c0-.685.576-1.275 1.24-1.275h21.663v2.912zm-1.24-15.347h-.32v-.022h-24.6v4.77H97.37c.668.002 1.24.596 1.24 1.278v1.66h-21.66c-3.232.007-5.83 2.696-5.845 6.023v.355c.015 3.335 2.613 6.02 5.844 6.03h26.258V17.822c0-3.327-2.6-6.016-5.836-6.026"/><g><path fill="#FFF" d="M16.83 16.585h17.62v-4.78H16.83V2.463H11.23v9.365H8.12v4.786h3.11v4.45c-.013.25-.024.504-.024.762 0 .246.012.485.023.724v.023h.008c.373 5.203 4.575 9.307 9.717 9.307v.008h13.497V27.1H21.914c-2.667 0-4.85-2.104-5.082-4.79v-5.725z"/></g></svg>