<?xml version="1.0" encoding="utf-8"?><svg xmlns="http://www.w3.org/2000/svg" xmlns:xlink="http://www.w3.org/1999/xlink" version="1.1" id="_x35__x5F_1" x="0px" y="0px" viewBox="0 0 480 125" style="enable-background:new 0 0 480 125;" xml:space="preserve"><style type="text/css">.st0{display:none;}.st1{display:inline;fill:#1C323A;}.st2{display:inline;}.st3{fill:#1C323A;}</style><g id="ts-logo" class="st0"><path class="st1" d="M78.6,24.6c-4.7,0-8.7,0.5-11.9,1.5c-3.2,1-5.8,2.6-7.8,4.6c-2,2.1-3.4,4.6-4.3,7.7c-0.8,3.1-1.3,6.7-1.3,10.9 v5.5c0,4,0.4,7.4,1.2,10.4c0.8,2.9,2.1,5.4,4,7.3c1.9,2,4.4,3.4,7.6,4.4s7.2,1.4,12,1.4h9.6c2.9,0,8.4-0.1,11.8-0.2V65.8 c-4,0.1-7.6,0.1-10.8,0.1h-9c-2,0-3.6-0.1-4.9-0.3c-1.3-0.2-2.3-0.7-3.1-1.3c-0.8-0.7-1.3-1.5-1.6-2.6c-0.3-1.1-0.5-2.4-0.6-4.2h24 c1.7,0,3.1-0.2,4.3-0.5c1.2-0.3,2.1-0.9,2.8-1.8c0.7-0.9,1.2-2,1.5-3.4s0.4-3.2,0.4-5.4v-2.1c0-6.2-1.8-11.1-5.5-14.5 C93.3,26.3,87.2,24.6,78.6,24.6z M69.5,46.5c0-2.1,0.1-3.8,0.4-5.2c0.2-1.3,0.7-2.4,1.3-3.1c0.6-0.8,1.5-1.3,2.6-1.6 s2.6-0.4,4.4-0.4s3.3,0.1,4.4,0.4c1.1,0.3,2,0.8,2.7,1.6s1.1,1.8,1.4,3.1c0.2,1.3,0.4,3,0.4,5.2H69.5z"/><path class="st1" d="M150.5,65.7c-2.8,0.1-5.3,0.2-7.6,0.2h-7.8c-2,0-3.7-0.1-5.1-0.4c-1.4-0.3-2.4-0.8-3.3-1.6 c-0.8-0.8-1.4-1.9-1.7-3.4c-0.3-1.5-0.5-3.4-0.5-5.8V48c0-2.4,0.2-4.3,0.5-5.8s0.8-2.6,1.6-3.4c0.8-0.8,1.8-1.3,3.2-1.6 c1.4-0.3,3.1-0.4,5.2-0.4h3.7c1.1,0,2,0,3,0c0.9,0,1.9,0.1,2.8,0.1c0.9,0,4.4,0.1,5.6,0.1V24.8c-3.9-0.1-7-0.2-9.4-0.2h-6.4 c-4.8,0-8.9,0.4-12.2,1.3c-3.3,0.9-6,2.2-8.1,4.1s-3.6,4.3-4.5,7.3s-1.4,6.6-1.4,10.8v6.7c0,4.3,0.4,7.9,1.3,10.9 c0.9,3,2.4,5.4,4.4,7.2c2.1,1.9,4.8,3.2,8.1,4.1c3.4,0.9,7.5,1.3,12.6,1.3c1.5,0,3.4,0,5.7,0s7.3-0.1,10-0.2V65.7H150.5z"/><path class="st1" d="M184.6,37.4c1.8,0,3.3,0.1,4.4,0.4c1.1,0.3,2,0.8,2.6,1.4c0.6,0.7,1,1.5,1.2,2.5s0.3,2.2,0.3,3.6v32.8h16.2 v-36c0-6.2-1.8-10.6-5.4-13.3c-3.6-2.7-8.6-4.1-15-4.1c-3.6,0-6.4,0.3-8.5,1s-3.8,1.5-5.1,2.5v-21l-16.2,2.5v68.4h16.2V46.9 c0-1.8,0.1-3.3,0.4-4.5c0.3-1.2,0.8-2.2,1.5-2.9s1.7-1.3,2.9-1.6C181.3,37.6,182.8,37.4,184.6,37.4z"/><path class="st1" d="M248.1,37.9c1.2,0.3,2.1,0.8,2.7,1.4c0.6,0.7,1,1.5,1.2,2.5s0.3,2.2,0.3,3.6v32.8h16.2v-34 c0-3.6-0.5-6.7-1.4-9.2s-2.4-4.5-4.4-6.1s-4.6-2.7-7.8-3.3c-3.2-0.7-7-1-11.5-1s-8.3,0.3-11.5,1s-5.8,1.8-7.8,3.3 c-2,1.6-3.5,3.6-4.4,6.1s-1.4,5.5-1.4,9.2v33.9h16.2V45.3c0-1.4,0.1-2.6,0.3-3.6s0.6-1.8,1.2-2.5c0.6-0.7,1.5-1.1,2.7-1.4 c1.2-0.3,2.8-0.4,4.7-0.4C245.3,37.4,246.9,37.6,248.1,37.9z"/><path class="st1" d="M352.7,42.9c-1.4-1.6-3.3-3-5.7-4c-2.4-1.1-5.3-1.9-8.8-2.5l-12.4-2.1c-1.6-0.3-2.8-0.6-3.8-0.9 c-1-0.4-1.7-0.8-2.2-1.3s-0.8-1.2-1-2s-0.3-1.8-0.3-2.9c0-1.3,0.2-2.3,0.5-3.2c0.3-0.9,0.8-1.5,1.6-2c0.7-0.5,1.8-0.9,3.2-1.1 c1.4-0.2,3-0.3,5.1-0.3h9.8c3.7,0,8.2,0.1,13.5,0.2l2.5-13.3c-3-0.1-5.6-0.1-8-0.1c-2.3,0-4.5,0-6.5,0h-5.6h-5.4 c-5,0-9.3,0.4-12.8,1.3s-6.3,2.2-8.5,3.9s-3.7,3.8-4.7,6.3c-1,2.4-1.4,5.3-1.4,8.4v1.6c0,2.9,0.3,5.5,0.8,7.6 c0.5,2.2,1.5,4.1,3,5.7c1.5,1.6,3.4,2.9,5.9,3.9s5.7,1.9,9.7,2.5l10.7,1.8c1.6,0.3,2.9,0.6,3.9,0.9c1,0.4,1.8,0.8,2.3,1.4 c0.6,0.6,0.9,1.3,1.1,2.1c0.2,0.9,0.3,1.9,0.3,3.2c0,1.4-0.2,2.5-0.5,3.4s-0.9,1.6-1.7,2.1c-0.8,0.5-2,0.9-3.5,1.1 c-1.5,0.2-3.3,0.3-5.5,0.3h-10.4c-3.8,0-10.4-0.1-15.8-0.2V78c3.3,0.1,5.8,0.1,8.4,0.1s4.9,0.1,7,0.1h5.6h4.9 c5.4,0,9.9-0.4,13.5-1.2c3.7-0.8,6.6-2,8.8-3.7c2.2-1.7,3.8-3.8,4.8-6.4c0.9-2.5,1.4-5.6,1.4-9.2v-1.5c0-2.9-0.3-5.5-0.9-7.7 C355.1,46.5,354.1,44.5,352.7,42.9z"/><path class="st1" d="M409.1,75.9c0.9-0.8,1.6-1.9,2-3.2c0.4-1.3,0.6-2.9,0.6-4.9V43.4c0-6.8-2-11.6-6-14.4 c-4-2.9-10.3-4.3-18.8-4.3c-3.9,0-7.4,0-10.4,0s-5.5,0.1-7.4,0.1L366.8,37c1.5-0.1,3.1-0.1,4.9-0.1s3.5-0.1,5.2-0.1h4.9h4.1 c2.2,0,4,0.2,5.3,0.5s2.3,0.8,3,1.5s1.2,1.5,1.4,2.5c0.2,1,0.4,3.5,0.4,4.9v1.1c-1.4-0.7-3.1-1.4-5.1-1.9c-2.1-0.5-4.8-0.8-8.2-0.8 c-7,0-12.2,1.2-15.5,3.7c-3.4,2.5-5.1,6.5-5.1,12v2.1c0,2.5,0.3,4.6,1,6.6c0.7,1.9,1.8,3.6,3.4,4.9c1.6,1.4,3.6,2.4,6.1,3.1 s5.7,1,9.5,1h18c2.1,0,3.9-0.2,5.4-0.5C407,77.3,408.2,76.7,409.1,75.9z M396,67.1h-10.8c-2.8,0-4.8-0.4-5.9-1.3s-1.6-2.2-1.6-4.2 v-0.7c0-2,0.6-3.5,1.7-4.3s3.3-1.2,6.5-1.2h1.4c3.6,0,5.9,0.5,7.1,1.4c1.1,1,1.7,2.5,1.7,4.5v5.8H396z"/><path class="st1" d="M453.9,65.7c-0.3,0-0.9,0-1.8,0s-1.8,0-2.7,0h-2.9h-2.2c-1.8,0-3.2-0.1-4.2-0.3c-1.1-0.2-1.9-0.7-2.5-1.3 c-0.6-0.6-1-1.5-1.2-2.6s-0.3-2.5-0.3-4.2V38.1H452l0.3-12.4H436V7.2l-16.2,2.5v47.9c0,4,0.3,7.4,0.9,10c0.6,2.6,1.7,4.8,3.4,6.3 c1.7,1.6,3.9,2.6,6.9,3.3c2.9,0.6,6.6,0.9,11.2,0.9h2.2c0.9,0,1.8,0,2.8,0c0.9,0,1.8,0,2.6,0h1.7L453.9,65.7z"/><ellipse class="st1" cx="285.5" cy="14.9" rx="8.1" ry="7.9"/><polygon class="st1" points="277.4,78.1 293.6,78.1 293.6,26.5 277.4,29 "/><polygon class="st1" points="66.8,7.4 4,7.4 1.4,21.2 25.6,21.2 25.6,78.1 42.4,78.1 42.4,21.2 64.1,21.2 "/></g><g id="fh-logo" class="st0"><path class="st1" d="M78.6,24.6c-4.7,0-8.7,0.5-11.9,1.5c-3.2,1-5.8,2.6-7.8,4.6c-2,2.1-3.4,4.6-4.3,7.7c-0.8,3.1-1.3,6.7-1.3,10.9 v5.5c0,4,0.4,7.4,1.2,10.4c0.8,2.9,2.1,5.4,4,7.3c1.9,2,4.4,3.4,7.6,4.4s7.2,1.4,12,1.4h9.6c2.9,0,8.4-0.1,11.8-0.2V65.8 c-4,0.1-7.6,0.1-10.8,0.1h-9c-2,0-3.6-0.1-4.9-0.3c-1.3-0.2-2.3-0.7-3.1-1.3c-0.8-0.7-1.3-1.5-1.6-2.6c-0.3-1.1-0.5-2.4-0.6-4.2h24 c1.7,0,3.1-0.2,4.3-0.5c1.2-0.3,2.1-0.9,2.8-1.8c0.7-0.9,1.2-2,1.5-3.4s0.4-3.2,0.4-5.4v-2.1c0-6.2-1.8-11.1-5.5-14.5 C93.3,26.3,87.2,24.6,78.6,24.6z M69.5,46.5c0-2.1,0.1-3.8,0.4-5.2c0.2-1.3,0.7-2.4,1.3-3.1c0.6-0.8,1.5-1.3,2.6-1.6 s2.6-0.4,4.4-0.4s3.3,0.1,4.4,0.4c1.1,0.3,2,0.8,2.7,1.6s1.1,1.8,1.4,3.1c0.2,1.3,0.4,3,0.4,5.2H69.5z"/><path class="st1" d="M150.5,65.7c-2.8,0.1-5.3,0.2-7.6,0.2h-7.8c-2,0-3.7-0.1-5.1-0.4c-1.4-0.3-2.4-0.8-3.3-1.6 c-0.8-0.8-1.4-1.9-1.7-3.4c-0.3-1.5-0.5-3.4-0.5-5.8V48c0-2.4,0.2-4.3,0.5-5.8s0.8-2.6,1.6-3.4c0.8-0.8,1.8-1.3,3.2-1.6 c1.4-0.3,3.1-0.4,5.2-0.4h3.7c1.1,0,2,0,3,0c0.9,0,1.9,0.1,2.8,0.1c0.9,0,4.4,0.1,5.6,0.1V24.8c-3.9-0.1-7-0.2-9.4-0.2h-6.4 c-4.8,0-8.9,0.4-12.2,1.3c-3.3,0.9-6,2.2-8.1,4.1s-3.6,4.3-4.5,7.3s-1.4,6.6-1.4,10.8v6.7c0,4.3,0.4,7.9,1.3,10.9 c0.9,3,2.4,5.4,4.4,7.2c2.1,1.9,4.8,3.2,8.1,4.1c3.4,0.9,7.5,1.3,12.6,1.3c1.5,0,3.4,0,5.7,0s7.3-0.1,10-0.2V65.7H150.5z"/><path class="st1" d="M184.6,37.4c1.8,0,3.3,0.1,4.4,0.4c1.1,0.3,2,0.8,2.6,1.4c0.6,0.7,1,1.5,1.2,2.5s0.3,2.2,0.3,3.6v32.8h16.2 v-36c0-6.2-1.8-10.6-5.4-13.3c-3.6-2.7-8.6-4.1-15-4.1c-3.6,0-6.4,0.3-8.5,1s-3.8,1.5-5.1,2.5v-21l-16.2,2.5v68.4h16.2V46.9 c0-1.8,0.1-3.3,0.4-4.5c0.3-1.2,0.8-2.2,1.5-2.9s1.7-1.3,2.9-1.6C181.3,37.6,182.8,37.4,184.6,37.4z"/><path class="st1" d="M248.1,37.9c1.2,0.3,2.1,0.8,2.7,1.4c0.6,0.7,1,1.5,1.2,2.5s0.3,2.2,0.3,3.6v32.8h16.2v-34 c0-3.6-0.5-6.7-1.4-9.2s-2.4-4.5-4.4-6.1s-4.6-2.7-7.8-3.3c-3.2-0.7-7-1-11.5-1s-8.3,0.3-11.5,1s-5.8,1.8-7.8,3.3 c-2,1.6-3.5,3.6-4.4,6.1s-1.4,5.5-1.4,9.2v33.9h16.2V45.3c0-1.4,0.1-2.6,0.3-3.6s0.6-1.8,1.2-2.5c0.6-0.7,1.5-1.1,2.7-1.4 c1.2-0.3,2.8-0.4,4.7-0.4C245.3,37.4,246.9,37.6,248.1,37.9z"/><path class="st1" d="M352.7,42.9c-1.4-1.6-3.3-3-5.7-4c-2.4-1.1-5.3-1.9-8.8-2.5l-12.4-2.1c-1.6-0.3-2.8-0.6-3.8-0.9 c-1-0.4-1.7-0.8-2.2-1.3s-0.8-1.2-1-2s-0.3-1.8-0.3-2.9c0-1.3,0.2-2.3,0.5-3.2c0.3-0.9,0.8-1.5,1.6-2c0.7-0.5,1.8-0.9,3.2-1.1 c1.4-0.2,3-0.3,5.1-0.3h9.8c3.7,0,8.2,0.1,13.5,0.2l2.5-13.3c-3-0.1-5.6-0.1-8-0.1c-2.3,0-4.5,0-6.5,0h-5.6h-5.4 c-5,0-9.3,0.4-12.8,1.3s-6.3,2.2-8.5,3.9s-3.7,3.8-4.7,6.3c-1,2.4-1.4,5.3-1.4,8.4v1.6c0,2.9,0.3,5.5,0.8,7.6 c0.5,2.2,1.5,4.1,3,5.7c1.5,1.6,3.4,2.9,5.9,3.9s5.7,1.9,9.7,2.5l10.7,1.8c1.6,0.3,2.9,0.6,3.9,0.9c1,0.4,1.8,0.8,2.3,1.4 c0.6,0.6,0.9,1.3,1.1,2.1c0.2,0.9,0.3,1.9,0.3,3.2c0,1.4-0.2,2.5-0.5,3.4s-0.9,1.6-1.7,2.1c-0.8,0.5-2,0.9-3.5,1.1 c-1.5,0.2-3.3,0.3-5.5,0.3h-10.4c-3.8,0-10.4-0.1-15.8-0.2V78c3.3,0.1,5.8,0.1,8.4,0.1s4.9,0.1,7,0.1h5.6h4.9 c5.4,0,9.9-0.4,13.5-1.2c3.7-0.8,6.6-2,8.8-3.7c2.2-1.7,3.8-3.8,4.8-6.4c0.9-2.5,1.4-5.6,1.4-9.2v-1.5c0-2.9-0.3-5.5-0.9-7.7 C355.1,46.5,354.1,44.5,352.7,42.9z"/><path class="st1" d="M409.1,75.9c0.9-0.8,1.6-1.9,2-3.2c0.4-1.3,0.6-2.9,0.6-4.9V43.4c0-6.8-2-11.6-6-14.4 c-4-2.9-10.3-4.3-18.8-4.3c-3.9,0-7.4,0-10.4,0s-5.5,0.1-7.4,0.1L366.8,37c1.5-0.1,3.1-0.1,4.9-0.1s3.5-0.1,5.2-0.1h4.9h4.1 c2.2,0,4,0.2,5.3,0.5s2.3,0.8,3,1.5s1.2,1.5,1.4,2.5c0.2,1,0.4,3.5,0.4,4.9v1.1c-1.4-0.7-3.1-1.4-5.1-1.9c-2.1-0.5-4.8-0.8-8.2-0.8 c-7,0-12.2,1.2-15.5,3.7c-3.4,2.5-5.1,6.5-5.1,12v2.1c0,2.5,0.3,4.6,1,6.6c0.7,1.9,1.8,3.6,3.4,4.9c1.6,1.4,3.6,2.4,6.1,3.1 s5.7,1,9.5,1h18c2.1,0,3.9-0.2,5.4-0.5C407,77.3,408.2,76.7,409.1,75.9z M396,67.1h-10.8c-2.8,0-4.8-0.4-5.9-1.3s-1.6-2.2-1.6-4.2 v-0.7c0-2,0.6-3.5,1.7-4.3s3.3-1.2,6.5-1.2h1.4c3.6,0,5.9,0.5,7.1,1.4c1.1,1,1.7,2.5,1.7,4.5v5.8H396z"/><path class="st1" d="M453.9,65.7c-0.3,0-0.9,0-1.8,0s-1.8,0-2.7,0h-2.9h-2.2c-1.8,0-3.2-0.1-4.2-0.3c-1.1-0.2-1.9-0.7-2.5-1.3 c-0.6-0.6-1-1.5-1.2-2.6s-0.3-2.5-0.3-4.2V38.1H452l0.3-12.4H436V7.2l-16.2,2.5v47.9c0,4,0.3,7.4,0.9,10c0.6,2.6,1.7,4.8,3.4,6.3 c1.7,1.6,3.9,2.6,6.9,3.3c2.9,0.6,6.6,0.9,11.2,0.9h2.2c0.9,0,1.8,0,2.8,0c0.9,0,1.8,0,2.6,0h1.7L453.9,65.7z"/><ellipse class="st1" cx="285.5" cy="14.9" rx="8.1" ry="7.9"/><polygon class="st1" points="277.4,78.1 293.6,78.1 293.6,26.5 277.4,29 "/><polygon class="st1" points="66.8,7.4 4,7.4 1.4,21.2 25.6,21.2 25.6,78.1 42.4,78.1 42.4,21.2 64.1,21.2 "/><path class="st1" d="M155.1,86.8h-13.9c-0.3,0-0.5,0.2-0.5,0.5V113c0,0.3,0.2,0.5,0.5,0.5h1.4c0.3,0,0.5-0.2,0.5-0.5v-11.9H155 c0.3,0,0.5-0.1,0.5-0.5v-1.1c0-0.3-0.2-0.5-0.5-0.5h-12V89h12.1c0.3,0,0.5-0.2,0.5-0.5v-1.3C155.6,87,155.4,86.8,155.1,86.8z"/><path class="st1" d="M167.2,93.5c-2.5,0-5.2,0.6-7,1.4c-0.2,0.1-0.3,0.3-0.3,0.5l0.3,1.1c0.1,0.3,0.3,0.4,0.6,0.3 c1.7-0.7,3.8-1.3,6.2-1.3c3.9,0,5.4,1.6,5.4,4.9v1.5c-8.1,0.2-14,1-14,6.4c0,3.3,2.3,5.5,6.5,5.5c5,0,6.8-2.5,7.5-4v3.2 c0,0.3,0.1,0.5,0.4,0.5h1.2c0.3,0,0.5-0.2,0.5-0.5v-12.6C174.5,95.9,172.4,93.5,167.2,93.5z M172.4,106c0,3.3-2.4,6-7.1,6 c-3.2,0-4.7-1.6-4.7-3.7c0-4,5.3-4.3,11.8-4.5V106z"/><path class="st1" d="M193.9,110.9c-0.1-0.2-0.2-0.4-0.6-0.2c-1.1,0.6-2.5,1.1-4.7,1.1c-4.3,0-6.9-2.8-6.9-8.2s2.6-8.1,7-8.1 c1.9,0,3.2,0.4,4.3,1c0.4,0.2,0.6,0,0.6-0.2l0.5-1.1c0.1-0.3,0-0.4-0.3-0.6c-1-0.6-2.8-1.2-5.3-1.2c-5.5,0-9,3.6-9,10.1 s3.6,10.2,9.2,10.2c2.4,0,4.4-0.7,5.3-1.3c0.3-0.2,0.5-0.3,0.3-0.5L193.9,110.9z"/><path class="st1" d="M208.6,93.5c-4.2,0-6.3,2.2-7,3.9V87.3c0-0.3-0.2-0.4-0.5-0.4h-1.3c-0.3,0-0.5,0.1-0.5,0.4V113 c0,0.3,0.2,0.5,0.5,0.5h1.3c0.3,0,0.5-0.2,0.5-0.5v-11.4c0-3.4,2.5-6,6.5-6c3.8,0,5.3,1.9,5.3,5.2V113c0,0.3,0.2,0.5,0.5,0.5h1.3 c0.3,0,0.4-0.2,0.4-0.5v-12.5C215.6,96.3,213.3,93.5,208.6,93.5z"/><path class="st1" d="M231.1,93.5c-4.2,0-6.3,2.2-7,3.9V87.3c0-0.3-0.2-0.4-0.5-0.4h-1.3c-0.3,0-0.5,0.1-0.5,0.4V113 c0,0.3,0.2,0.5,0.5,0.5h1.3c0.3,0,0.5-0.2,0.5-0.5v-11.4c0-3.4,2.5-6,6.5-6c3.8,0,5.3,1.9,5.3,5.2V113c0,0.3,0.2,0.5,0.5,0.5h1.3 c0.3,0,0.4-0.2,0.4-0.5v-12.5C238,96.3,235.7,93.5,231.1,93.5z"/><path class="st1" d="M251.4,93.5c-2.5,0-5.2,0.6-7,1.4c-0.2,0.1-0.3,0.3-0.3,0.5l0.3,1.1c0.1,0.3,0.3,0.4,0.6,0.3 c1.7-0.7,3.8-1.3,6.2-1.3c3.9,0,5.4,1.6,5.4,4.9v1.5c-8.1,0.2-14,1-14,6.4c0,3.3,2.3,5.5,6.5,5.5c5,0,6.8-2.5,7.5-4v3.2 c0,0.3,0.1,0.5,0.4,0.5h1.2c0.3,0,0.5-0.2,0.5-0.5v-12.6C258.8,95.9,256.6,93.5,251.4,93.5z M256.6,106c0,3.3-2.4,6-7.1,6 c-3.2,0-4.7-1.6-4.7-3.7c0-4,5.3-4.3,11.8-4.5V106z"/><path class="st1" d="M274,93.5c-4.3,0-6.2,2.2-7,3.9v-3c0-0.3-0.2-0.5-0.5-0.5h-1.3c-0.3,0-0.4,0.2-0.4,0.5V113 c0,0.3,0.1,0.5,0.4,0.5h1.3c0.3,0,0.5-0.2,0.5-0.5v-11.4c0-3.5,2.6-6,6.5-6c3.7,0,5.2,1.9,5.2,5.1V113c0,0.3,0.2,0.5,0.5,0.5h1.3 c0.3,0,0.5-0.2,0.5-0.5v-12.5C280.9,96.3,278.6,93.5,274,93.5z"/><path class="st1" d="M303.4,86.8h-1.3c-0.3,0-0.5,0.1-0.5,0.4v10.6c-1.1-2.8-3.8-4.3-7.2-4.3c-5.3,0-8.5,3.5-8.5,10.2 s3.3,10.1,8.5,10.1c3.4,0,6.1-1.4,7.3-4.2v3.4c0,0.3,0.1,0.5,0.4,0.5h1.3c0.3,0,0.5-0.2,0.5-0.5V87.3 C303.9,87,303.8,86.8,303.4,86.8z M294.8,111.9c-4.4,0-6.6-2.6-6.6-8.2s2.3-8.2,6.6-8.2c4.3,0,6.9,2.9,6.9,8.2 S299.2,111.9,294.8,111.9z"/><path class="st1" d="M318,93.5c-5.5,0-8.7,3.7-8.7,10.2c0,6.3,3.5,10.2,9.6,10.2c2.4,0,4.5-0.6,6-1.4c0.3-0.1,0.4-0.3,0.3-0.5 l-0.4-1c-0.1-0.3-0.3-0.5-0.6-0.3c-1.4,0.8-3,1.3-5.2,1.3c-4.6,0-7.3-2.8-7.5-7.3h14.4c0.3,0,0.5-0.1,0.5-0.5v-1.6 C326.3,97.4,323.4,93.5,318,93.5z M324.1,102.9h-12.7c0.2-4.9,2.4-7.4,6.5-7.4c4.2,0,6.2,3,6.2,7.1V102.9z"/><path class="st1" d="M333.3,86.8H332c-0.3,0-0.4,0.1-0.4,0.4V113c0,0.3,0.1,0.5,0.4,0.5h1.3c0.3,0,0.5-0.2,0.5-0.5V87.3 C333.7,87,333.6,86.8,333.3,86.8z"/><path class="st1" d="M346.1,102.6c-3.1-1.1-5.2-1.7-5.2-4.1c0-2.1,1.4-3,4.6-3c2.1,0,3.7,0.4,5,0.9c0.3,0.1,0.5,0,0.5-0.3l0.3-1 c0.1-0.3,0-0.4-0.3-0.5c-1.4-0.6-3.4-1.1-5.9-1.1c-4.5,0-6.6,1.8-6.6,4.9c0,3.9,3,4.6,6,5.8c3.2,1.1,5.4,1.9,5.4,4.4 c0,2.4-1.7,3.3-5.1,3.3c-2,0-4-0.4-5.5-1c-0.3-0.2-0.5,0-0.5,0.3l-0.4,1.1c-0.1,0.2,0.1,0.3,0.3,0.5c1.6,0.7,3.9,1.1,6.3,1.1 c4.6,0,7.2-1.7,7.2-5.3C352.4,105.1,349.4,103.8,346.1,102.6z"/><path class="st1" d="M366.7,93.5c-3.4,0-6.1,1.5-7.3,4.3v-3.4c0-0.3-0.1-0.5-0.5-0.5h-1.3c-0.3,0-0.5,0.2-0.5,0.5v22.7 c0,0.3,0.2,0.5,0.5,0.5h1.3c0.3,0,0.5-0.2,0.5-0.5v-7.6c1.1,2.9,3.8,4.2,7.2,4.2c5.3,0,8.5-3.5,8.5-10.1S372,93.5,366.7,93.5z M366.3,111.9c-4.3,0-6.8-2.8-6.8-8.2s2.5-8.2,6.8-8.2c4.4,0,6.6,2.6,6.6,8.2C373,109.3,370.7,111.9,366.3,111.9z"/><path class="st1" d="M388.4,93.5c-5.6,0-9,3.6-9,10.2c0,6.5,3.4,10.1,9,10.1s9-3.6,9-10.1S394,93.5,388.4,93.5z M388.4,111.9 c-4.3,0-6.7-2.8-6.7-8.2c0-5.4,2.4-8.2,6.7-8.2c4.3,0,6.8,2.8,6.8,8.2C395.1,109.1,392.7,111.9,388.4,111.9z"/><path class="st1" d="M411.4,93.9c-3.8,0-6,2.9-6.6,4.7v-4.2c0-0.3-0.2-0.5-0.5-0.5H403c-0.3,0-0.5,0.2-0.5,0.5V113 c0,0.3,0.2,0.5,0.5,0.5h1.3c0.3,0,0.5-0.2,0.5-0.5v-9.5c0-3.6,2.7-7.3,5.9-7.3c0.4,0,0.6,0.1,0.7,0.1c0.3,0,0.4-0.1,0.4-0.4v-1.6 C411.8,94,411.7,93.9,411.4,93.9z"/><path class="st1" d="M425.1,111.8c-0.1-0.3-0.2-0.4-0.5-0.4c-0.6,0.1-1,0.3-1.9,0.3c-2.7,0-3.4-0.9-3.4-4.1V96h5.4 c0.3,0,0.5-0.1,0.5-0.5v-1.1c0-0.3-0.2-0.5-0.5-0.5h-5.4v-5.1c0-0.3-0.2-0.5-0.5-0.5h-1.2c-0.3,0-0.5,0.1-0.5,0.5V94h-3 c-0.3,0-0.5,0.2-0.5,0.5v1.1c0,0.3,0.2,0.5,0.5,0.5h3V108c0,4.3,1.4,5.9,5.2,5.9c1,0,2.1-0.2,2.7-0.4c0.2-0.1,0.4-0.2,0.3-0.5 L425.1,111.8z"/><path class="st1" d="M436.7,93.5c-2.5,0-5.2,0.6-7,1.4c-0.2,0.1-0.3,0.3-0.3,0.5l0.3,1.1c0.1,0.3,0.3,0.4,0.6,0.3 c1.7-0.7,3.8-1.3,6.2-1.3c3.9,0,5.4,1.6,5.4,4.9v1.5c-8.1,0.2-14,1-14,6.4c0,3.3,2.3,5.5,6.5,5.5c5,0,6.8-2.5,7.5-4v3.2 c0,0.3,0.1,0.5,0.4,0.5h1.2c0.3,0,0.5-0.2,0.5-0.5v-12.6C444.1,95.9,442,93.5,436.7,93.5z M441.9,106c0,3.3-2.4,6-7.1,6 c-3.2,0-4.7-1.6-4.7-3.7c0-4,5.3-4.3,11.8-4.5L441.9,106L441.9,106z"/><path class="st1" d="M452,86.8h-1.3c-0.3,0-0.4,0.1-0.4,0.4V113c0,0.3,0.1,0.5,0.4,0.5h1.3c0.3,0,0.5-0.2,0.5-0.5V87.3 C452.5,87,452.3,86.8,452,86.8z"/></g><g id="mp-logo" class="st0"><path class="st1" d="M78.6,24.6c-4.7,0-8.7,0.5-11.9,1.5c-3.2,1-5.8,2.6-7.8,4.6c-2,2.1-3.4,4.6-4.3,7.7c-0.8,3.1-1.3,6.7-1.3,10.9 v5.5c0,4,0.4,7.4,1.2,10.4c0.8,2.9,2.1,5.4,4,7.3c1.9,2,4.4,3.4,7.6,4.4s7.2,1.4,12,1.4h9.6c2.9,0,8.4-0.1,11.8-0.2V65.8 c-4,0.1-7.6,0.1-10.8,0.1h-9c-2,0-3.6-0.1-4.9-0.3c-1.3-0.2-2.3-0.7-3.1-1.3c-0.8-0.7-1.3-1.5-1.6-2.6c-0.3-1.1-0.5-2.4-0.6-4.2h24 c1.7,0,3.1-0.2,4.3-0.5c1.2-0.3,2.1-0.9,2.8-1.8c0.7-0.9,1.2-2,1.5-3.4s0.4-3.2,0.4-5.4v-2.1c0-6.2-1.8-11.1-5.5-14.5 C93.3,26.3,87.2,24.6,78.6,24.6z M69.5,46.5c0-2.1,0.1-3.8,0.4-5.2c0.2-1.3,0.7-2.4,1.3-3.1c0.6-0.8,1.5-1.3,2.6-1.6 s2.6-0.4,4.4-0.4s3.3,0.1,4.4,0.4c1.1,0.3,2,0.8,2.7,1.6s1.1,1.8,1.4,3.1c0.2,1.3,0.4,3,0.4,5.2H69.5z"/><path class="st1" d="M135.1,65.9c-2,0-3.7-0.1-5.1-0.4c-1.4-0.3-2.4-0.8-3.3-1.6c-0.8-0.8-1.4-1.9-1.7-3.4 c-0.3-1.5-0.5-3.4-0.5-5.8V48c0-2.4,0.2-4.3,0.5-5.8s0.8-2.6,1.6-3.4c0.8-0.8,1.8-1.3,3.2-1.6c1.4-0.3,3.1-0.4,5.2-0.4h3.7 c1.1,0,2,0,3,0c0.9,0,1.9,0.1,2.8,0.1c0.9,0,4.4,0.1,5.6,0.1V24.8c-3.9-0.1-7-0.2-9.4-0.2h-6.4c-4.8,0-8.9,0.4-12.2,1.3 c-3.3,0.9-6,2.2-8.1,4.1s-3.6,4.3-4.5,7.3s-1.4,6.6-1.4,10.8v6.7c0,4.3,0.4,7.9,1.3,10.9c0.9,3,2.4,5.4,4.4,7.2 c2.1,1.9,4.8,3.2,8.1,4.1c3.4,0.9,7.5,1.3,12.6,1.3c1.5,0,3.4,0,5.7,0s7.3-0.1,10-0.2V65.7c-2.8,0.1-5.3,0.2-7.6,0.2 C142.6,65.9,135.1,65.9,135.1,65.9z"/><path class="st1" d="M203.9,28.7c-3.6-2.7-8.6-4.1-15-4.1c-3.6,0-6.4,0.3-8.5,1s-3.8,1.5-5.1,2.5V7.2l-16.2,2.5v68.4h16.2V46.9 c0-1.8,0.1-3.3,0.4-4.5c0.3-1.2,0.8-2.2,1.5-2.9s1.7-1.3,2.9-1.6s2.7-0.5,4.6-0.5c1.8,0,3.3,0.1,4.4,0.4c1.1,0.3,2,0.8,2.6,1.4 c0.6,0.7,1,1.5,1.2,2.5s0.3,2.2,0.3,3.6v32.8h16.2v-36C209.3,35.9,207.5,31.5,203.9,28.7z"/><path class="st1" d="M268.5,78.1V44.2c0-3.6-0.5-6.7-1.4-9.2s-2.4-4.5-4.4-6.1s-4.6-2.7-7.8-3.3c-3.2-0.7-7-1-11.5-1 s-8.3,0.3-11.5,1s-5.8,1.8-7.8,3.3c-2,1.6-3.5,3.6-4.4,6.1s-1.4,5.5-1.4,9.2v33.9h16.2V45.3c0-1.4,0.1-2.6,0.3-3.6s0.6-1.8,1.2-2.5 c0.6-0.7,1.5-1.1,2.7-1.4c1.2-0.3,2.8-0.4,4.7-0.4c2,0,3.5,0.1,4.7,0.4c1.2,0.3,2.1,0.8,2.7,1.4c0.6,0.7,1,1.5,1.2,2.5 s0.3,2.2,0.3,3.6v32.8H268.5z"/><path class="st1" d="M352.7,42.9c-1.4-1.6-3.3-3-5.7-4c-2.4-1.1-5.3-1.9-8.8-2.5l-12.4-2.1c-1.6-0.3-2.8-0.6-3.8-0.9 c-1-0.4-1.7-0.8-2.2-1.3s-0.8-1.2-1-2s-0.3-1.8-0.3-2.9c0-1.3,0.2-2.3,0.5-3.2c0.3-0.9,0.8-1.5,1.6-2c0.7-0.5,1.8-0.9,3.2-1.1 c1.4-0.2,3-0.3,5.1-0.3h9.8c3.7,0,8.2,0.1,13.5,0.2l2.5-13.3c-3-0.1-5.6-0.1-8-0.1c-2.3,0-4.5,0-6.5,0h-5.6h-5.4 c-5,0-9.3,0.4-12.8,1.3s-6.3,2.2-8.5,3.9s-3.7,3.8-4.7,6.3c-1,2.4-1.4,5.3-1.4,8.4v1.6c0,2.9,0.3,5.5,0.8,7.6 c0.5,2.2,1.5,4.1,3,5.7c1.5,1.6,3.4,2.9,5.9,3.9s5.7,1.9,9.7,2.5l10.7,1.8c1.6,0.3,2.9,0.6,3.9,0.9c1,0.4,1.8,0.8,2.3,1.4 c0.6,0.6,0.9,1.3,1.1,2.1c0.2,0.9,0.3,1.9,0.3,3.2c0,1.4-0.2,2.5-0.5,3.4s-0.9,1.6-1.7,2.1c-0.8,0.5-2,0.9-3.5,1.1 c-1.5,0.2-3.3,0.3-5.5,0.3h-10.4c-3.8,0-10.4-0.1-15.8-0.2V78c3.3,0.1,5.8,0.1,8.4,0.1s4.9,0.1,7,0.1h5.6h4.9 c5.4,0,9.9-0.4,13.5-1.2c3.7-0.8,6.6-2,8.8-3.7c2.2-1.7,3.8-3.8,4.8-6.4c0.9-2.5,1.4-5.6,1.4-9.2v-1.5c0-2.9-0.3-5.5-0.9-7.7 C355.1,46.5,354.1,44.5,352.7,42.9z"/><path class="st1" d="M409.1,75.9c0.9-0.8,1.6-1.9,2-3.2c0.4-1.3,0.6-2.9,0.6-4.9V43.4c0-6.8-2-11.6-6-14.4 c-4-2.9-10.3-4.3-18.8-4.3c-3.9,0-7.4,0-10.4,0s-5.5,0.1-7.4,0.1L366.8,37c1.5-0.1,3.1-0.1,4.9-0.1s3.5-0.1,5.2-0.1h4.9h4.1 c2.2,0,4,0.2,5.3,0.5s2.3,0.8,3,1.5s1.2,1.5,1.4,2.5c0.2,1,0.4,3.5,0.4,4.9v1.1c-1.4-0.7-3.1-1.4-5.1-1.9c-2.1-0.5-4.8-0.8-8.2-0.8 c-7,0-12.2,1.2-15.5,3.7c-3.4,2.5-5.1,6.5-5.1,12v2.1c0,2.5,0.3,4.6,1,6.6c0.7,1.9,1.8,3.6,3.4,4.9c1.6,1.4,3.6,2.4,6.1,3.1 s5.7,1,9.5,1h18c2.1,0,3.9-0.2,5.4-0.5C407,77.3,408.2,76.7,409.1,75.9z M396,67.1h-10.8c-2.8,0-4.8-0.4-5.9-1.3s-1.6-2.2-1.6-4.2 v-0.7c0-2,0.6-3.5,1.7-4.3s3.3-1.2,6.5-1.2h1.4c3.6,0,5.9,0.5,7.1,1.4c1.1,1,1.7,2.5,1.7,4.5v5.8H396z"/><path class="st1" d="M453.9,65.7c-0.3,0-0.9,0-1.8,0s-1.8,0-2.7,0h-2.9h-2.2c-1.8,0-3.2-0.1-4.2-0.3c-1.1-0.2-1.9-0.7-2.5-1.3 c-0.6-0.6-1-1.5-1.2-2.6s-0.3-2.5-0.3-4.2V38.1H452l0.3-12.4H436V7.2l-16.2,2.5v47.9c0,4,0.3,7.4,0.9,10c0.6,2.6,1.7,4.8,3.4,6.3 c1.7,1.6,3.9,2.6,6.9,3.3c2.9,0.6,6.6,0.9,11.2,0.9h2.2c0.9,0,1.8,0,2.8,0c0.9,0,1.8,0,2.6,0h1.7L453.9,65.7z"/><ellipse class="st1" cx="285.5" cy="14.9" rx="8.1" ry="7.9"/><polygon class="st1" points="277.4,78.1 293.6,78.1 293.6,26.5 277.4,29 "/><polygon class="st1" points="66.8,7.4 4,7.4 1.4,21.2 25.6,21.2 25.6,78.1 42.4,78.1 42.4,21.2 64.1,21.2 "/><path class="st1" d="M277.2,86.8h-1.5c-0.3,0-0.5,0.1-0.6,0.3l-9,14.9l-9-14.9c-0.1-0.2-0.3-0.3-0.6-0.3H255 c-0.3,0-0.5,0.2-0.5,0.5V113c0,0.3,0.2,0.5,0.5,0.5h1.4c0.3,0,0.5-0.2,0.5-0.5V91l8.5,14.3c0.2,0.2,0.4,0.3,0.6,0.3 s0.5-0.1,0.6-0.3l8.5-14.3v22c0,0.3,0.2,0.5,0.5,0.5h1.4c0.3,0,0.5-0.2,0.5-0.5V87.3C277.7,87,277.5,86.8,277.2,86.8z"/><path class="st1" d="M292,93.5c-5.5,0-8.7,3.7-8.7,10.2c0,6.3,3.5,10.2,9.6,10.2c2.4,0,4.5-0.6,6-1.4c0.3-0.1,0.4-0.3,0.3-0.5 l-0.4-1c-0.1-0.3-0.3-0.5-0.6-0.3c-1.4,0.8-3,1.3-5.2,1.3c-4.6,0-7.3-2.8-7.5-7.3h14.4c0.3,0,0.5-0.1,0.5-0.5v-1.6 C300.3,97.4,297.5,93.5,292,93.5z M298.2,102.9h-12.7c0.2-4.9,2.4-7.4,6.5-7.4c4.2,0,6.2,3,6.2,7.1V102.9z"/><path class="st1" d="M321.7,86.8h-1.3c-0.3,0-0.5,0.1-0.5,0.4v10.6c-1.1-2.8-3.8-4.3-7.2-4.3c-5.3,0-8.5,3.5-8.5,10.2 s3.3,10.1,8.5,10.1c3.4,0,6.1-1.4,7.3-4.2v3.4c0,0.3,0.1,0.5,0.4,0.5h1.3c0.3,0,0.5-0.2,0.5-0.5V87.3 C322.2,87,322.1,86.8,321.7,86.8z M313.2,111.9c-4.4,0-6.6-2.6-6.6-8.2s2.3-8.2,6.6-8.2c4.3,0,6.9,2.9,6.9,8.2 S317.5,111.9,313.2,111.9z"/><path class="st1" d="M330.5,94h-1.3c-0.3,0-0.4,0.2-0.4,0.5V113c0,0.3,0.1,0.5,0.4,0.5h1.3c0.3,0,0.5-0.2,0.5-0.5V94.5 C330.9,94.1,330.8,94,330.5,94z"/><path class="st1" d="M330.5,87.2h-1.3c-0.3,0-0.4,0.1-0.4,0.5v3.2c0,0.3,0.1,0.5,0.4,0.5h1.3c0.3,0,0.5-0.2,0.5-0.5v-3.2 C330.9,87.3,330.8,87.2,330.5,87.2z"/><path class="st1" d="M344.5,93.5c-2.5,0-5.2,0.6-7,1.4c-0.2,0.1-0.3,0.3-0.3,0.5l0.3,1.1c0.1,0.3,0.3,0.4,0.6,0.3 c1.7-0.7,3.8-1.3,6.2-1.3c3.9,0,5.4,1.6,5.4,4.9v1.5c-8.1,0.2-14,1-14,6.4c0,3.3,2.3,5.5,6.5,5.5c5,0,6.8-2.5,7.5-4v3.2 c0,0.3,0.1,0.5,0.4,0.5h1.2c0.3,0,0.5-0.2,0.5-0.5v-12.6C351.9,95.9,349.8,93.5,344.5,93.5z M349.7,106c0,3.3-2.4,6-7.1,6 c-3.2,0-4.7-1.6-4.7-3.7c0-4,5.3-4.3,11.8-4.5L349.7,106L349.7,106z"/><path class="st1" d="M367.4,93.5c-3.4,0-6.1,1.5-7.3,4.3v-3.4c0-0.3-0.1-0.5-0.5-0.5h-1.3c-0.3,0-0.5,0.2-0.5,0.5v22.7 c0,0.3,0.2,0.5,0.5,0.5h1.3c0.3,0,0.5-0.2,0.5-0.5v-7.6c1.1,2.9,3.8,4.2,7.2,4.2c5.3,0,8.5-3.5,8.5-10.1S372.7,93.5,367.4,93.5z M367,111.9c-4.3,0-6.8-2.8-6.8-8.2s2.5-8.2,6.8-8.2c4.4,0,6.6,2.6,6.6,8.2C373.7,109.3,371.4,111.9,367,111.9z"/><path class="st1" d="M389.1,93.5c-5.6,0-9,3.6-9,10.2c0,6.5,3.4,10.1,9,10.1s9-3.6,9-10.1S394.7,93.5,389.1,93.5z M389.1,111.9 c-4.3,0-6.7-2.8-6.7-8.2c0-5.4,2.4-8.2,6.7-8.2s6.8,2.8,6.8,8.2C395.8,109.1,393.4,111.9,389.1,111.9z"/><path class="st1" d="M412.1,93.9c-3.8,0-6,2.9-6.6,4.7v-4.2c0-0.3-0.2-0.5-0.5-0.5h-1.3c-0.3,0-0.5,0.2-0.5,0.5V113 c0,0.3,0.2,0.5,0.5,0.5h1.3c0.3,0,0.5-0.2,0.5-0.5v-9.5c0-3.6,2.7-7.3,5.9-7.3c0.4,0,0.6,0.1,0.7,0.1c0.3,0,0.4-0.1,0.4-0.4v-1.6 C412.5,94,412.4,93.9,412.1,93.9z"/><path class="st1" d="M425.7,111.8c-0.1-0.3-0.2-0.4-0.5-0.4c-0.6,0.1-1,0.3-1.9,0.3c-2.7,0-3.4-0.9-3.4-4.1V96h5.4 c0.3,0,0.5-0.1,0.5-0.5v-1.1c0-0.3-0.2-0.5-0.5-0.5H420v-5.1c0-0.3-0.2-0.5-0.5-0.5h-1.2c-0.3,0-0.5,0.1-0.5,0.5V94h-3 c-0.3,0-0.5,0.2-0.5,0.5v1.1c0,0.3,0.2,0.5,0.5,0.5h3V108c0,4.3,1.4,5.9,5.2,5.9c1,0,2.1-0.2,2.7-0.4c0.2-0.1,0.4-0.2,0.3-0.5 L425.7,111.8z"/><path class="st1" d="M437.4,93.5c-2.5,0-5.2,0.6-7,1.4c-0.2,0.1-0.3,0.3-0.3,0.5l0.3,1.1c0.1,0.3,0.3,0.4,0.6,0.3 c1.7-0.7,3.8-1.3,6.2-1.3c3.9,0,5.4,1.6,5.4,4.9v1.5c-8.1,0.2-14,1-14,6.4c0,3.3,2.3,5.5,6.5,5.5c5,0,6.8-2.5,7.5-4v3.2 c0,0.3,0.1,0.5,0.4,0.5h1.2c0.3,0,0.5-0.2,0.5-0.5v-12.6C444.8,95.9,442.7,93.5,437.4,93.5z M442.6,106c0,3.3-2.4,6-7.1,6 c-3.2,0-4.7-1.6-4.7-3.7c0-4,5.3-4.3,11.8-4.5L442.6,106L442.6,106z"/><path class="st1" d="M452.7,86.8h-1.3c-0.3,0-0.4,0.1-0.4,0.4V113c0,0.3,0.1,0.5,0.4,0.5h1.3c0.3,0,0.5-0.2,0.5-0.5V87.3 C453.1,87,453,86.8,452.7,86.8z"/></g><g id="hw-logo" class="st0"><path class="st1" d="M78.6,24.6c-4.7,0-8.7,0.5-11.9,1.5c-3.2,1-5.8,2.6-7.8,4.6c-2,2.1-3.4,4.6-4.3,7.7c-0.8,3.1-1.3,6.7-1.3,10.9 v5.5c0,4,0.4,7.4,1.2,10.4c0.8,2.9,2.1,5.4,4,7.3c1.9,2,4.4,3.4,7.6,4.4s7.2,1.4,12,1.4h9.6c2.9,0,8.4-0.1,11.8-0.2V65.8 c-4,0.1-7.6,0.1-10.8,0.1h-9c-2,0-3.6-0.1-4.9-0.3c-1.3-0.2-2.3-0.7-3.1-1.3c-0.8-0.7-1.3-1.5-1.6-2.6c-0.3-1.1-0.5-2.4-0.6-4.2h24 c1.7,0,3.1-0.2,4.3-0.5c1.2-0.3,2.1-0.9,2.8-1.8c0.7-0.9,1.2-2,1.5-3.4s0.4-3.2,0.4-5.4v-2.1c0-6.2-1.8-11.1-5.5-14.5 C93.3,26.3,87.2,24.6,78.6,24.6z M69.5,46.5c0-2.1,0.1-3.8,0.4-5.2c0.2-1.3,0.7-2.4,1.3-3.1c0.6-0.8,1.5-1.3,2.6-1.6 s2.6-0.4,4.4-0.4s3.3,0.1,4.4,0.4c1.1,0.3,2,0.8,2.7,1.6s1.1,1.8,1.4,3.1c0.2,1.3,0.4,3,0.4,5.2H69.5z"/><path class="st1" d="M135.1,65.9c-2,0-3.7-0.1-5.1-0.4c-1.4-0.3-2.4-0.8-3.3-1.6c-0.8-0.8-1.4-1.9-1.7-3.4 c-0.3-1.5-0.5-3.4-0.5-5.8V48c0-2.4,0.2-4.3,0.5-5.8s0.8-2.6,1.6-3.4c0.8-0.8,1.8-1.3,3.2-1.6c1.4-0.3,3.1-0.4,5.2-0.4h3.7 c1.1,0,2,0,3,0c0.9,0,1.9,0.1,2.8,0.1c0.9,0,4.4,0.1,5.6,0.1V24.8c-3.9-0.1-7-0.2-9.4-0.2h-6.4c-4.8,0-8.9,0.4-12.2,1.3 c-3.3,0.9-6,2.2-8.1,4.1s-3.6,4.3-4.5,7.3s-1.4,6.6-1.4,10.8v6.7c0,4.3,0.4,7.9,1.3,10.9c0.9,3,2.4,5.4,4.4,7.2 c2.1,1.9,4.8,3.2,8.1,4.1c3.4,0.9,7.5,1.3,12.6,1.3c1.5,0,3.4,0,5.7,0s7.3-0.1,10-0.2V65.7c-2.8,0.1-5.3,0.2-7.6,0.2 C142.6,65.9,135.1,65.9,135.1,65.9z"/><path class="st1" d="M203.9,28.7c-3.6-2.7-8.6-4.1-15-4.1c-3.6,0-6.4,0.3-8.5,1s-3.8,1.5-5.1,2.5V7.2l-16.2,2.5v68.4h16.2V46.9 c0-1.8,0.1-3.3,0.4-4.5c0.3-1.2,0.8-2.2,1.5-2.9s1.7-1.3,2.9-1.6s2.7-0.5,4.6-0.5c1.8,0,3.3,0.1,4.4,0.4c1.1,0.3,2,0.8,2.6,1.4 c0.6,0.7,1,1.5,1.2,2.5s0.3,2.2,0.3,3.6v32.8h16.2v-36C209.3,35.9,207.5,31.5,203.9,28.7z"/><path class="st1" d="M268.5,78.1V44.2c0-3.6-0.5-6.7-1.4-9.2s-2.4-4.5-4.4-6.1s-4.6-2.7-7.8-3.3c-3.2-0.7-7-1-11.5-1 s-8.3,0.3-11.5,1s-5.8,1.8-7.8,3.3c-2,1.6-3.5,3.6-4.4,6.1s-1.4,5.5-1.4,9.2v33.9h16.2V45.3c0-1.4,0.1-2.6,0.3-3.6s0.6-1.8,1.2-2.5 c0.6-0.7,1.5-1.1,2.7-1.4c1.2-0.3,2.8-0.4,4.7-0.4c2,0,3.5,0.1,4.7,0.4c1.2,0.3,2.1,0.8,2.7,1.4c0.6,0.7,1,1.5,1.2,2.5 s0.3,2.2,0.3,3.6v32.8H268.5z"/><path class="st1" d="M352.7,42.9c-1.4-1.6-3.3-3-5.7-4c-2.4-1.1-5.3-1.9-8.8-2.5l-12.4-2.1c-1.6-0.3-2.8-0.6-3.8-0.9 c-1-0.4-1.7-0.8-2.2-1.3s-0.8-1.2-1-2s-0.3-1.8-0.3-2.9c0-1.3,0.2-2.3,0.5-3.2c0.3-0.9,0.8-1.5,1.6-2c0.7-0.5,1.8-0.9,3.2-1.1 c1.4-0.2,3-0.3,5.1-0.3h9.8c3.7,0,8.2,0.1,13.5,0.2l2.5-13.3c-3-0.1-5.6-0.1-8-0.1c-2.3,0-4.5,0-6.5,0h-5.6h-5.4 c-5,0-9.3,0.4-12.8,1.3s-6.3,2.2-8.5,3.9s-3.7,3.8-4.7,6.3c-1,2.4-1.4,5.3-1.4,8.4v1.6c0,2.9,0.3,5.5,0.8,7.6 c0.5,2.2,1.5,4.1,3,5.7c1.5,1.6,3.4,2.9,5.9,3.9s5.7,1.9,9.7,2.5l10.7,1.8c1.6,0.3,2.9,0.6,3.9,0.9c1,0.4,1.8,0.8,2.3,1.4 c0.6,0.6,0.9,1.3,1.1,2.1c0.2,0.9,0.3,1.9,0.3,3.2c0,1.4-0.2,2.5-0.5,3.4s-0.9,1.6-1.7,2.1c-0.8,0.5-2,0.9-3.5,1.1 c-1.5,0.2-3.3,0.3-5.5,0.3h-10.4c-3.8,0-10.4-0.1-15.8-0.2V78c3.3,0.1,5.8,0.1,8.4,0.1s4.9,0.1,7,0.1h5.6h4.9 c5.4,0,9.9-0.4,13.5-1.2c3.7-0.8,6.6-2,8.8-3.7c2.2-1.7,3.8-3.8,4.8-6.4c0.9-2.5,1.4-5.6,1.4-9.2v-1.5c0-2.9-0.3-5.5-0.9-7.7 C355.1,46.5,354.1,44.5,352.7,42.9z"/><path class="st1" d="M409.1,75.9c0.9-0.8,1.6-1.9,2-3.2c0.4-1.3,0.6-2.9,0.6-4.9V43.4c0-6.8-2-11.6-6-14.4 c-4-2.9-10.3-4.3-18.8-4.3c-3.9,0-7.4,0-10.4,0s-5.5,0.1-7.4,0.1L366.8,37c1.5-0.1,3.1-0.1,4.9-0.1s3.5-0.1,5.2-0.1h4.9h4.1 c2.2,0,4,0.2,5.3,0.5s2.3,0.8,3,1.5s1.2,1.5,1.4,2.5c0.2,1,0.4,3.5,0.4,4.9v1.1c-1.4-0.7-3.1-1.4-5.1-1.9c-2.1-0.5-4.8-0.8-8.2-0.8 c-7,0-12.2,1.2-15.5,3.7c-3.4,2.5-5.1,6.5-5.1,12v2.1c0,2.5,0.3,4.6,1,6.6c0.7,1.9,1.8,3.6,3.4,4.9c1.6,1.4,3.6,2.4,6.1,3.1 s5.7,1,9.5,1h18c2.1,0,3.9-0.2,5.4-0.5C407,77.3,408.2,76.7,409.1,75.9z M396,67.1h-10.8c-2.8,0-4.8-0.4-5.9-1.3s-1.6-2.2-1.6-4.2 v-0.7c0-2,0.6-3.5,1.7-4.3s3.3-1.2,6.5-1.2h1.4c3.6,0,5.9,0.5,7.1,1.4c1.1,1,1.7,2.5,1.7,4.5v5.8H396z"/><path class="st1" d="M453.9,65.7c-0.3,0-0.9,0-1.8,0s-1.8,0-2.7,0h-2.9h-2.2c-1.8,0-3.2-0.1-4.2-0.3c-1.1-0.2-1.9-0.7-2.5-1.3 c-0.6-0.6-1-1.5-1.2-2.6s-0.3-2.5-0.3-4.2V38.1H452l0.3-12.4H436V7.2l-16.2,2.5v47.9c0,4,0.3,7.4,0.9,10c0.6,2.6,1.7,4.8,3.4,6.3 c1.7,1.6,3.9,2.6,6.9,3.3c2.9,0.6,6.6,0.9,11.2,0.9h2.2c0.9,0,1.8,0,2.8,0c0.9,0,1.8,0,2.6,0h1.7L453.9,65.7z"/><ellipse class="st1" cx="285.5" cy="14.9" rx="8.1" ry="7.9"/><polygon class="st1" points="277.4,78.1 293.6,78.1 293.6,26.5 277.4,29 "/><polygon class="st1" points="66.8,7.4 4,7.4 1.4,21.2 25.6,21.2 25.6,78.1 42.4,78.1 42.4,21.2 64.1,21.2 "/><g class="st2"><path class="st3" d="M295.4,100.6h-15.1V113c0,0.4-0.2,0.5-0.5,0.5h-1.4c-0.4,0-0.5-0.2-0.5-0.5V86.6c0-0.3,0.2-0.5,0.5-0.5h1.4 c0.4,0,0.5,0.2,0.5,0.5v11.7h15.1V86.6c0-0.3,0.2-0.5,0.5-0.5h1.4c0.3,0,0.5,0.2,0.5,0.5V113c0,0.4-0.2,0.5-0.5,0.5h-1.4 c-0.4,0-0.5-0.2-0.5-0.5V100.6z"/><path class="st3" d="M319.7,113c0,0.3-0.2,0.5-0.5,0.5H318c-0.3,0-0.4-0.2-0.4-0.5v-3.2c-0.7,1.5-2.6,4.1-7.7,4.1 c-4.4,0-6.7-2.3-6.7-5.6c0-5.6,6-6.4,14.4-6.6v-1.5c0-3.5-1.5-5.1-5.5-5.1c-2.5,0-4.6,0.6-6.4,1.3c-0.3,0.1-0.5,0-0.6-0.3 l-0.4-1.1c-0.1-0.3,0-0.4,0.3-0.5c1.9-0.8,4.6-1.4,7.2-1.4c5.4,0,7.6,2.4,7.6,7.1L319.7,113L319.7,113z M317.5,103.5 c-6.7,0.2-12.1,0.5-12.1,4.6c0,2.1,1.6,3.8,4.8,3.8c4.8,0,7.3-2.8,7.3-6.2L317.5,103.5L317.5,103.5z"/><path class="st3" d="M342.4,113c0,0.3-0.1,0.5-0.5,0.5h-1.3c-0.3,0-0.5-0.2-0.5-0.5v-12.6c0-3.3-1.5-5.3-5.3-5.3 c-4,0-6.6,2.5-6.6,6.2V113c0,0.3-0.2,0.5-0.5,0.5h-1.4c-0.3,0-0.4-0.2-0.4-0.5V94c0-0.4,0.1-0.5,0.4-0.5h1.3 c0.3,0,0.5,0.2,0.5,0.5v3c0.8-1.8,2.8-4,7.1-4c4.8,0,7.1,2.8,7.1,7.1L342.4,113L342.4,113z"/><path class="st3" d="M363.7,109.6c-1.2,2.9-3.9,4.3-7.4,4.3c-5.4,0-8.8-3.5-8.8-10.4s3.4-10.5,8.8-10.5c3.5,0,6.3,1.6,7.4,4.4 V86.6c0-0.3,0.2-0.4,0.5-0.4h1.3c0.4,0,0.5,0.1,0.5,0.4V113c0,0.3-0.2,0.5-0.5,0.5h-1.3c-0.3,0-0.4-0.2-0.4-0.5v-3.4H363.7z M356.7,95.1c-4.5,0-6.8,2.7-6.8,8.4c0,5.7,2.3,8.4,6.8,8.4c4.4,0,7.1-2.9,7.1-8.4S361.1,95.1,356.7,95.1z"/><path class="st3" d="M385.6,93.5c0.4,0,0.5,0.2,0.5,0.5l4.4,13.4l1.1,3.7h0.1l0.9-3.7l4-13.4c0.1-0.3,0.2-0.5,0.5-0.5h1.4 c0.4,0,0.5,0.2,0.4,0.5l-5.9,19c-0.1,0.3-0.3,0.4-0.6,0.4h-1.6c-0.3,0-0.5-0.2-0.6-0.4l-4.2-12.7l-1.2-4.1h-0.1l-1.1,4.1 l-4.2,12.7c-0.1,0.3-0.3,0.4-0.6,0.4h-1.6c-0.3,0-0.5-0.2-0.5-0.4l-5.9-19c-0.1-0.3,0-0.5,0.4-0.5h1.4c0.3,0,0.4,0.2,0.5,0.5 l4.1,13.4l0.9,3.7h0.1l1.1-3.7l4.3-13.4c0.1-0.3,0.2-0.5,0.5-0.5H385.6z"/><path class="st3" d="M417.5,110.7c0.4-0.2,0.5,0,0.7,0.3l0.4,1c0.1,0.3,0,0.4-0.3,0.5c-1.6,0.8-3.7,1.4-6.2,1.4 c-6.2,0-9.8-4-9.8-10.5c0-6.7,3.4-10.5,9-10.5s8.5,4,8.5,9.4v1.6c0,0.4-0.2,0.5-0.5,0.5h-14.7c0.2,4.5,3,7.4,7.7,7.4 C414.4,112,416,111.5,417.5,110.7z M404.5,102.6h13v-0.3c0-4.3-2-7.3-6.3-7.3C407,95,404.7,97.6,404.5,102.6z"/><path class="st3" d="M426.8,93.5c0.3,0,0.5,0.2,0.5,0.5v4.3c0.7-1.9,2.9-4.8,6.8-4.8c0.2,0,0.4,0,0.4,0.4v1.7 c0,0.3-0.2,0.4-0.4,0.4c-0.2,0-0.4-0.1-0.7-0.1c-3.3,0-6,3.8-6,7.5v9.7c0,0.3-0.2,0.5-0.5,0.5h-1.3c-0.4,0-0.5-0.2-0.5-0.5V94 c0-0.4,0.2-0.5,0.5-0.5H426.8z"/><path class="st3" d="M451.5,113.5c-0.3,0-0.5-0.1-0.7-0.3l-9.5-9.3v9.2c0,0.3-0.2,0.5-0.5,0.5h-1.3c-0.4,0-0.5-0.2-0.5-0.5V86.6 c0-0.3,0.2-0.4,0.5-0.4h1.3c0.3,0,0.5,0.1,0.5,0.4v14.3l9.1-7.1c0.2-0.2,0.4-0.2,0.7-0.2h2c0.4,0,0.5,0.4,0.2,0.6l-10.5,8.2 l11,10.6c0.3,0.2,0.1,0.6-0.2,0.6L451.5,113.5L451.5,113.5z"/></g></g><g id="fho-logo" data-name="Ebene 1" xmlns="http://www.w3.org/2000/svg" viewBox="0 0 452.48 110.69"><defs><style>.\37 5950b34-ee18-44b4-9e5d-fc51d3210219{fill:#1b3139;}</style></defs><title>Logo_TechniSat_OnlineShop_001</title><path class="75950b34-ee18-44b4-9e5d-fc51d3210219" d="M78.22,36.21a17.6,17.6,0,0,0-4.42.45,5,5,0,0,0-2.64,1.59,6.4,6.4,0,0,0-1.32,3.12,30.1,30.1,0,0,0-.36,5.17H87.06a31.3,31.3,0,0,0-.35-5.17,6.25,6.25,0,0,0-1.38-3.12,5.32,5.32,0,0,0-2.69-1.59,17.6,17.6,0,0,0-4.42-.45M69.48,57.46A17.78,17.78,0,0,0,70,61.62a5.25,5.25,0,0,0,1.62,2.59,6.59,6.59,0,0,0,3.11,1.34,28.46,28.46,0,0,0,4.87.34h9q4.81,0,10.82-.1V78.1c-3.39.14-8.87.2-11.79.2H78.12a42.21,42.21,0,0,1-12-1.44,17.22,17.22,0,0,1-7.62-4.37,16.27,16.27,0,0,1-4-7.34,40.77,40.77,0,0,1-1.17-10.38V49.31a41,41,0,0,1,1.27-10.86,17.44,17.44,0,0,1,4.27-7.7,18.52,18.52,0,0,1,7.83-4.61A39.58,39.58,0,0,1,78.63,24.6q12.8,0,18.29,5.21t5.49,14.54v2.09A29,29,0,0,1,102,51.8a7.41,7.41,0,0,1-1.47,3.37A5.51,5.51,0,0,1,97.73,57a15.68,15.68,0,0,1-4.27.5Z" transform="translate(-1.4 -6.97)"/><path class="75950b34-ee18-44b4-9e5d-fc51d3210219" d="M134.5,24.56h6.35c2.4,0,5.54.07,9.4.2v12.5c-1.15-.06-4.64-.11-5.59-.15L141.81,37c-.95,0-1.94-.05-3-.05h-3.71a28.44,28.44,0,0,0-5.19.39,6,6,0,0,0-3.2,1.59,6.62,6.62,0,0,0-1.62,3.38,28.62,28.62,0,0,0-.46,5.75v6.7a28.62,28.62,0,0,0,.46,5.75,6.43,6.43,0,0,0,1.67,3.38A6.34,6.34,0,0,0,130,65.5a27.52,27.52,0,0,0,5.08.39h7.77c2.27,0,4.79-.06,7.57-.2V78.1c-2.71.07-7.67.12-10,.15s-4.25,0-5.74,0A51.5,51.5,0,0,1,122.15,77,19.11,19.11,0,0,1,114,72.94a15.27,15.27,0,0,1-4.42-7.25,38.89,38.89,0,0,1-1.32-10.91v-6.7a37.39,37.39,0,0,1,1.37-10.82A15.75,15.75,0,0,1,114.17,30a19.06,19.06,0,0,1,8.13-4.12,49.41,49.41,0,0,1,12.2-1.29" transform="translate(-1.4 -6.97)"/><path class="75950b34-ee18-44b4-9e5d-fc51d3210219" d="M159.13,78.1V9.72l16.16-2.49V28.17a17.18,17.18,0,0,1,5.08-2.53,28.19,28.19,0,0,1,8.53-1q9.56,0,15,4.12t5.44,13.35v36H193.17V45.34a18.38,18.38,0,0,0-.3-3.57,5.14,5.14,0,0,0-1.22-2.48,5.29,5.29,0,0,0-2.59-1.44,17.66,17.66,0,0,0-4.42-.45,17.87,17.87,0,0,0-4.58.5,6.17,6.17,0,0,0-2.89,1.59,5.83,5.83,0,0,0-1.48,2.93,21.35,21.35,0,0,0-.4,4.51V78.1Z" transform="translate(-1.4 -6.97)"/><path class="75950b34-ee18-44b4-9e5d-fc51d3210219" d="M218.27,78.1V44.15A25.8,25.8,0,0,1,219.7,35a13.67,13.67,0,0,1,4.42-6.06,18.73,18.73,0,0,1,7.77-3.32,67.11,67.11,0,0,1,23,0,18.73,18.73,0,0,1,7.77,3.32A13.67,13.67,0,0,1,267.05,35a25.8,25.8,0,0,1,1.43,9.18V78.1H252.32V45.34a17.56,17.56,0,0,0-.31-3.57,5,5,0,0,0-1.22-2.48,5.33,5.33,0,0,0-2.69-1.44,25,25,0,0,0-9.45,0A5.33,5.33,0,0,0,236,39.29a5,5,0,0,0-1.22,2.48,18.3,18.3,0,0,0-.31,3.57V78.1Z" transform="translate(-1.4 -6.97)"/><path class="75950b34-ee18-44b4-9e5d-fc51d3210219" d="M338.18,36.41A37.67,37.67,0,0,1,347,38.89a16.24,16.24,0,0,1,5.69,4,14.46,14.46,0,0,1,3.05,5.76,29.13,29.13,0,0,1,.91,7.69v1.49A26.37,26.37,0,0,1,355.25,67a14,14,0,0,1-4.78,6.35,22.29,22.29,0,0,1-8.84,3.72,65.25,65.25,0,0,1-13.52,1.19H317.59q-3.09,0-7,0c-2.61,0-5.12-.08-8.44-.15V64.8c5.35.13,12,.2,15.76.2h10.42a36.61,36.61,0,0,0,5.54-.35,9.3,9.3,0,0,0,3.45-1.14A4,4,0,0,0,339,61.38,11,11,0,0,0,339.5,58a16.66,16.66,0,0,0-.26-3.17,4,4,0,0,0-1.12-2.14,6.61,6.61,0,0,0-2.33-1.39,21.75,21.75,0,0,0-3.92-.94L321.2,48.52A45.74,45.74,0,0,1,311.55,46a16.33,16.33,0,0,1-5.95-3.92,12.85,12.85,0,0,1-3-5.66,31.49,31.49,0,0,1-.82-7.64V27.18a23,23,0,0,1,1.43-8.44,14.53,14.53,0,0,1,4.67-6.25,22.45,22.45,0,0,1,8.49-3.92,51.82,51.82,0,0,1,12.75-1.34h11q3,0,6.5,0l8,.15L352.1,20.73c-5.29-.14-9.77-.2-13.47-.2h-9.8a29.89,29.89,0,0,0-5.08.35A8.19,8.19,0,0,0,320.59,22,3.93,3.93,0,0,0,319,24a9.46,9.46,0,0,0-.46,3.18,14,14,0,0,0,.26,2.88,3.91,3.91,0,0,0,1,2A5.89,5.89,0,0,0,322,33.38a20,20,0,0,0,3.76.95Z" transform="translate(-1.4 -6.97)"/><path class="75950b34-ee18-44b4-9e5d-fc51d3210219" d="M377.68,61.62a5,5,0,0,0,1.63,4.17q1.62,1.29,5.9,1.29H396V61.33a5.64,5.64,0,0,0-1.68-4.52q-1.68-1.44-7.06-1.44h-1.43c-3.18,0-5.33.42-6.45,1.24s-1.68,2.27-1.68,4.32Zm34.05,6.26a16.58,16.58,0,0,1-.61,4.86,6.76,6.76,0,0,1-2,3.18,8.14,8.14,0,0,1-3.61,1.69,25.35,25.35,0,0,1-5.39.49h-18a36.91,36.91,0,0,1-9.51-1A15.33,15.33,0,0,1,366.5,74a11.43,11.43,0,0,1-3.35-4.91,19.54,19.54,0,0,1-1-6.55V60.43q0-8.24,5.09-12t15.54-3.72a34.53,34.53,0,0,1,8.18.79,23,23,0,0,1,5.14,1.89V46.34a29.9,29.9,0,0,0-.36-4.9,5.1,5.1,0,0,0-1.42-2.54,6.59,6.59,0,0,0-3.05-1.53,22.3,22.3,0,0,0-5.33-.5h-9c-1.73,0-3.47,0-5.23.05s-3.39.08-4.88.15l2.34-12.21q2.94-.11,7.42-.15t10.36-.05q12.7,0,18.75,4.32t6.05,14.44Z" transform="translate(-1.4 -6.97)"/><path class="75950b34-ee18-44b4-9e5d-fc51d3210219" d="M436,38.08V57.36a23.2,23.2,0,0,0,.31,4.22,4.87,4.87,0,0,0,1.22,2.58A4.94,4.94,0,0,0,440,65.45a20.51,20.51,0,0,0,4.21.34h5.14c1,0,1.89,0,2.74-.05s1.44,0,1.78,0l-2.44,12.4h-1.68c-.78,0-1.64,0-2.59.05s-1.88,0-2.79,0h-2.19A54.44,54.44,0,0,1,431,77.26,14.17,14.17,0,0,1,424.15,74a12.05,12.05,0,0,1-3.4-6.3,45.67,45.67,0,0,1-.92-10V9.72L436,7.23V25.67H452.4l-.35,12.41Z" transform="translate(-1.4 -6.97)"/><path class="75950b34-ee18-44b4-9e5d-fc51d3210219" d="M277.38,14.87a8.09,8.09,0,0,1,16.17,0,8.09,8.09,0,0,1-16.17,0" transform="translate(-1.4 -6.97)"/><polygon class="75950b34-ee18-44b4-9e5d-fc51d3210219" points="276.01 22.01 276.01 71.13 292.17 71.13 292.17 19.52 276.01 22.01"/><polygon class="75950b34-ee18-44b4-9e5d-fc51d3210219" points="2.64 0.44 0 14.24 24.19 14.24 24.19 71.12 40.96 71.12 40.96 14.24 62.7 14.24 65.45 0.44 2.64 0.44"/><path class="75950b34-ee18-44b4-9e5d-fc51d3210219" d="M159.3,101.1V113c0,.34-.16.49-.5.49h-1.37c-.34,0-.49-.15-.49-.49V87.3c0-.3.15-.45.49-.45h13.95c.3,0,.45.15.45.42v1.25c0,.31-.15.5-.45.5H159.3V99h11.85a.44.44,0,0,1,.49.49v1.14c0,.34-.19.46-.49.46Z" transform="translate(-1.4 -6.97)"/><path class="75950b34-ee18-44b4-9e5d-fc51d3210219" d="M190.8,113a.4.4,0,0,1-.46.45h-1.22c-.3,0-.41-.15-.41-.45v-3.16c-.73,1.49-2.55,4-7.53,4-4.25,0-6.53-2.21-6.53-5.48,0-5.43,5.89-6.19,14-6.38v-1.48c0-3.38-1.44-4.94-5.36-4.94A16,16,0,0,0,177,96.84a.39.39,0,0,1-.57-.26l-.34-1.11c-.08-.26,0-.41.27-.53a18.58,18.58,0,0,1,7-1.4c5.24,0,7.37,2.35,7.37,6.87Zm-2.17-9.27c-6.53.22-11.82.49-11.82,4.52,0,2.09,1.52,3.68,4.72,3.68,4.71,0,7.1-2.73,7.1-6Z" transform="translate(-1.4 -6.97)"/><path class="75950b34-ee18-44b4-9e5d-fc51d3210219" d="M204.82,93.54a11,11,0,0,1,5.32,1.17c.26.16.42.31.3.57L210,96.35c-.08.23-.27.42-.65.23a8.59,8.59,0,0,0-4.29-1c-4.37,0-7,2.7-7,8.09s2.62,8.17,6.87,8.17a9.16,9.16,0,0,0,4.68-1.14c.34-.15.49,0,.57.23l.45,1.1c.12.27,0,.38-.34.53a11.12,11.12,0,0,1-5.32,1.29c-5.58,0-9.19-3.68-9.19-10.18S199.35,93.54,204.82,93.54Z" transform="translate(-1.4 -6.97)"/><path class="75950b34-ee18-44b4-9e5d-fc51d3210219" d="M231.84,113c0,.3-.12.45-.42.45h-1.33a.4.4,0,0,1-.46-.45V100.79c0-3.23-1.52-5.16-5.28-5.16-3.95,0-6.5,2.62-6.5,6V113a.4.4,0,0,1-.45.45h-1.29c-.35,0-.5-.15-.5-.45V87.27c0-.31.15-.42.5-.42h1.29c.3,0,.45.11.45.42V97.45c.73-1.71,2.82-3.91,7-3.91,4.68,0,7,2.73,7,6.95Z" transform="translate(-1.4 -6.97)"/><path class="75950b34-ee18-44b4-9e5d-fc51d3210219" d="M254.29,113c0,.3-.11.45-.41.45h-1.33a.4.4,0,0,1-.46-.45V100.79c0-3.23-1.52-5.16-5.28-5.16-3.95,0-6.5,2.62-6.5,6V113a.4.4,0,0,1-.45.45h-1.3c-.34,0-.49-.15-.49-.45V87.27c0-.31.15-.42.49-.42h1.3c.3,0,.45.11.45.42V97.45c.72-1.71,2.81-3.91,7-3.91,4.67,0,6.95,2.73,6.95,6.95Z" transform="translate(-1.4 -6.97)"/><path class="75950b34-ee18-44b4-9e5d-fc51d3210219" d="M275,113a.4.4,0,0,1-.45.45h-1.22c-.3,0-.42-.15-.42-.45v-3.16c-.72,1.49-2.54,4-7.52,4-4.26,0-6.54-2.21-6.54-5.48,0-5.43,5.89-6.19,14-6.38v-1.48c0-3.38-1.45-4.94-5.36-4.94a16,16,0,0,0-6.23,1.29.39.39,0,0,1-.57-.26l-.34-1.11c-.08-.26,0-.41.26-.53a18.58,18.58,0,0,1,7-1.4c5.24,0,7.37,2.35,7.37,6.87Zm-2.16-9.27c-6.54.22-11.82.49-11.82,4.52,0,2.09,1.52,3.68,4.71,3.68,4.71,0,7.11-2.73,7.11-6Z" transform="translate(-1.4 -6.97)"/><path class="75950b34-ee18-44b4-9e5d-fc51d3210219" d="M297.16,113c0,.3-.12.45-.46.45h-1.29A.4.4,0,0,1,295,113V100.76c0-3.2-1.48-5.13-5.2-5.13-3.88,0-6.46,2.47-6.46,6V113a.4.4,0,0,1-.46.45H281.5c-.3,0-.41-.15-.41-.45V94.49c0-.35.11-.5.41-.5h1.29a.4.4,0,0,1,.46.46l0,3c.8-1.71,2.7-3.87,6.95-3.87,4.68,0,6.92,2.73,6.92,6.95Z" transform="translate(-1.4 -6.97)"/><path class="75950b34-ee18-44b4-9e5d-fc51d3210219" d="M318,109.65c-1.18,2.85-3.84,4.21-7.26,4.21-5.28,0-8.54-3.45-8.54-10.14s3.26-10.18,8.54-10.18c3.42,0,6.12,1.52,7.22,4.29V87.27c0-.31.15-.42.46-.42h1.29c.34,0,.49.11.49.42V113c0,.3-.15.45-.49.45H318.4c-.31,0-.42-.15-.42-.45ZM311.1,95.51c-4.37,0-6.64,2.62-6.64,8.21s2.27,8.17,6.64,8.17S318,109,318,103.72,315.44,95.51,311.1,95.51Z" transform="translate(-1.4 -6.97)"/><path class="75950b34-ee18-44b4-9e5d-fc51d3210219" d="M340.4,110.75c.34-.19.53,0,.65.26l.38,1c.07.27,0,.42-.31.53a13.2,13.2,0,0,1-6,1.41c-6.08,0-9.57-3.88-9.57-10.18,0-6.5,3.27-10.22,8.74-10.22s8.32,3.87,8.32,9.19v1.56c0,.34-.15.45-.5.45H327.71c.19,4.41,2.89,7.26,7.49,7.26A10,10,0,0,0,340.4,110.75Zm-12.69-7.87H340.4v-.3c0-4.14-1.94-7.11-6.15-7.11S327.9,98,327.71,102.88Z" transform="translate(-1.4 -6.97)"/><path class="75950b34-ee18-44b4-9e5d-fc51d3210219" d="M350,113a.4.4,0,0,1-.46.45h-1.33c-.3,0-.42-.15-.42-.45V87.27c0-.31.12-.42.42-.42h1.33c.31,0,.46.11.46.42Z" transform="translate(-1.4 -6.97)"/><path class="75950b34-ee18-44b4-9e5d-fc51d3210219" d="M361.45,113.86a16.91,16.91,0,0,1-6.27-1.1c-.26-.11-.41-.23-.34-.45l.38-1.11c.08-.22.19-.41.53-.26a15.52,15.52,0,0,0,5.55,1c3.42,0,5.13-1,5.13-3.35s-2.24-3.23-5.39-4.37-6-1.9-6-5.77c0-3.08,2.05-4.9,6.57-4.9a14.26,14.26,0,0,1,5.85,1.1c.23.11.38.23.27.49l-.35,1c-.07.23-.19.38-.53.26a13.25,13.25,0,0,0-5-1c-3.23,0-4.64.92-4.64,3,0,2.39,2.09,3.08,5.17,4.14,3.34,1.21,6.3,2.54,6.3,6S366,113.86,361.45,113.86Z" transform="translate(-1.4 -6.97)"/><path class="75950b34-ee18-44b4-9e5d-fc51d3210219" d="M378.36,113.86a16.91,16.91,0,0,1-6.27-1.1c-.26-.11-.41-.23-.34-.45l.38-1.11c.08-.22.19-.41.53-.26a15.52,15.52,0,0,0,5.55,1c3.42,0,5.13-1,5.13-3.35s-2.24-3.23-5.39-4.37-6.05-1.9-6.05-5.77c0-3.08,2.06-4.9,6.58-4.9a14.26,14.26,0,0,1,5.85,1.1c.23.11.38.23.26.49l-.34,1c-.07.23-.19.38-.53.26a13.25,13.25,0,0,0-5-1c-3.23,0-4.64.92-4.64,3,0,2.39,2.09,3.08,5.17,4.14,3.34,1.21,6.3,2.54,6.3,6S382.92,113.86,378.36,113.86Z" transform="translate(-1.4 -6.97)"/><path class="75950b34-ee18-44b4-9e5d-fc51d3210219" d="M406.82,113c0,.3-.11.45-.41.45h-1.33a.4.4,0,0,1-.46-.45V100.79c0-3.23-1.52-5.16-5.28-5.16-3.95,0-6.5,2.62-6.5,6V113a.4.4,0,0,1-.45.45h-1.3c-.34,0-.49-.15-.49-.45V87.27c0-.31.15-.42.49-.42h1.3c.3,0,.45.11.45.42V97.45c.72-1.71,2.81-3.91,7-3.91,4.67,0,6.95,2.73,6.95,6.95Z" transform="translate(-1.4 -6.97)"/><path class="75950b34-ee18-44b4-9e5d-fc51d3210219" d="M411.84,103.72c0-6.54,3.38-10.18,9-10.18s9,3.64,9,10.18-3.42,10.14-9,10.14S411.84,110.22,411.84,103.72Zm15.77,0c0-5.4-2.43-8.21-6.76-8.21s-6.73,2.81-6.73,8.21,2.39,8.17,6.73,8.17S427.61,109.11,427.61,103.72Z" transform="translate(-1.4 -6.97)"/><path class="75950b34-ee18-44b4-9e5d-fc51d3210219" d="M437.26,97.83c1.14-2.77,3.84-4.29,7.26-4.29,5.28,0,8.55,3.49,8.55,10.18s-3.27,10.14-8.55,10.14c-3.42,0-6.08-1.33-7.22-4.21v7.56a.4.4,0,0,1-.46.45h-1.29c-.34,0-.49-.15-.49-.45V94.49c0-.35.15-.5.49-.5h1.26c.34,0,.45.15.45.46Zm6.88,14.06c4.37,0,6.65-2.62,6.65-8.17s-2.28-8.21-6.65-8.21-6.84,2.89-6.84,8.21S439.81,111.89,444.14,111.89Z" transform="translate(-1.4 -6.97)"/></g><defs><style><![CDATA[g { display: none; } g:target { display: inline; } #ts-logo{display:block;}]]></style></defs></svg>