<?xml version="1.0" encoding="UTF-8" standalone="no"?>
<!-- Creator: CorelDRAW X5 -->

<svg
   xmlns:dc="http://purl.org/dc/elements/1.1/"
   xmlns:cc="http://creativecommons.org/ns#"
   xmlns:rdf="http://www.w3.org/1999/02/22-rdf-syntax-ns#"
   xmlns:svg="http://www.w3.org/2000/svg"
   xmlns="http://www.w3.org/2000/svg"
   xmlns:sodipodi="http://sodipodi.sourceforge.net/DTD/sodipodi-0.dtd"
   xmlns:inkscape="http://www.inkscape.org/namespaces/inkscape"
   xml:space="preserve"
   width="97.959999mm"
   height="31.82mm"
   style="clip-rule:evenodd;fill-rule:evenodd;image-rendering:optimizeQuality;shape-rendering:geometricPrecision;text-rendering:geometricPrecision"
   viewBox="0 0 9795.9999 3182"
   version="1.1"
   id="svg50"
   sodipodi:docname="navbar_logo.svg"
   inkscape:version="0.92.0 r15299"><metadata
     id="metadata54"><rdf:RDF><cc:Work
         rdf:about=""><dc:format>image/svg+xml</dc:format><dc:type
           rdf:resource="http://purl.org/dc/dcmitype/StillImage" /><dc:title></dc:title></cc:Work></rdf:RDF></metadata><sodipodi:namedview
     pagecolor="#ffffff"
     bordercolor="#666666"
     borderopacity="1"
     objecttolerance="10"
     gridtolerance="10"
     guidetolerance="10"
     inkscape:pageopacity="0"
     inkscape:pageshadow="2"
     inkscape:window-width="1920"
     inkscape:window-height="1001"
     id="namedview52"
     showgrid="false"
     inkscape:zoom="2.3204648"
     inkscape:cx="150.93328"
     inkscape:cy="73.638827"
     inkscape:window-x="-9"
     inkscape:window-y="-9"
     inkscape:window-maximized="1"
     inkscape:current-layer="svg50"
     fit-margin-top="0"
     fit-margin-left="0"
     fit-margin-right="0"
     fit-margin-bottom="0" /><defs
     id="defs4"><style
       type="text/css"
       id="style2"><![CDATA[
    .fil2 {fill:#C32328}
    .fil0 {fill:#FEFEFE}
    .fil1 {fill:#2E2E2D;fill-rule:nonzero}
   ]]></style></defs><g
     id="Warstwa_x0020_1"
     transform="translate(-9519,-7944)"><metadata
       id="CorelCorpID_0Corel-Layer" /><polygon
       class="fil0"
       points="9646,8718 14454,7954 19191,8718 "
       id="polygon7"
       style="fill:#fefefe" /><path
       class="fil1"
       d="m 14455,7944 4737,764 123,20 h -125 -9545 -126 l 125,-20 4808,-764 h 2 2 z m 4611,764 -4613,-744 -4681,744 z"
       id="path9"
       inkscape:connector-curvature="0"
       style="fill:#2e2e2d;fill-rule:nonzero" /><polygon
       class="fil2"
       points="10269,8718 14450,8030 18710,8718 "
       id="polygon11"
       style="fill:#c32328" /><polygon
       class="fil0"
       points="9646,10352 14454,11116 19191,10352 "
       id="polygon13"
       style="fill:#fefefe" /><path
       class="fil1"
       d="m 14454,11106 4613,-744 H 9773 Z m 4739,-744 -4737,764 h -2 -2 l -4808,-764 -125,-20 h 126 9545 125 l -123,20 z"
       id="path15"
       inkscape:connector-curvature="0"
       style="fill:#2e2e2d;fill-rule:nonzero" /><polygon
       class="fil2"
       points="10269,10352 14450,11040 18710,10352 "
       id="polygon17"
       style="fill:#c32328" /><path
       class="fil0"
       d="m 10847,10109 c 127,5 272,23 362,-85 91,-107 155,-154 222,-113 67,41 83,157 -74,204 -157,48 -518,76 -762,49 -243,-26 -519,-110 -673,-204 -154,-94 -192,-205 -192,-324 0,-119 80,-207 192,-289 112,-82 268,-151 451,-183 183,-32 440,-43 628,-7 189,36 303,75 410,153 108,78 197,144 211,298 -274,11 -961,-2 -1220,7 -19,171 -12,285 74,381 86,96 243,108 370,113 z m -426,-579 c 177,5 355,9 532,14 -4,-194 -67,-331 -240,-349 -181,-19 -296,163 -292,335 z"
       id="path19"
       inkscape:connector-curvature="0"
       style="fill:#fefefe" /><path
       class="fil1"
       d="m 10845,10075 c 12,0 23,1 34,2 116,5 217,-47 296,-141 46,-54 72,-65 109,-86 39,-22 115,1 152,23 23,14 41,67 49,93 4,13 5,27 4,42 -2,14 -7,29 -15,43 -19,30 -54,57 -114,75 -82,25 -217,44 -363,54 -137,9 -284,9 -403,-4 -122,-13 -252,-41 -371,-77 -120,-36 -228,-81 -306,-129 -79,-48 -128,-101 -157,-157 -30,-56 -40,-115 -40,-176 0,-62 21,-115 56,-164 35,-48 84,-91 140,-133 59,-43 129,-82 209,-115 74,-30 157,-55 246,-70 97,-17 215,-28 333,-30 105,-1 209,5 299,23 95,18 171,37 237,61 66,24 123,54 177,94 54,39 104,76 142,122 39,47 65,104 73,183 l 1,10 h -10 c -145,6 -406,5 -659,4 -218,-1 -430,-1 -553,2 -9,81 -11,149 -2,207 10,60 32,111 74,157 41,46 99,39 163,54 65,15 135,29 197,31 z m 33,21 c -12,-1 -23,-1 -34,-2 -64,-2 -135,-16 -201,-32 -68,-16 -128,-11 -173,-60 -44,-49 -68,-103 -79,-167 -10,-63 -7,-135 2,-221 l 1,-9 h 9 c 122,-4 338,-3 562,-3 246,1 500,2 647,-4 -8,-69 -32,-119 -67,-161 -37,-44 -85,-80 -139,-119 -53,-38 -108,-67 -172,-91 -65,-24 -140,-43 -234,-61 -88,-17 -191,-23 -295,-22 -116,1 -233,12 -330,29 -88,15 -169,39 -242,69 -78,32 -147,70 -204,112 -55,41 -103,82 -136,129 -33,45 -52,95 -52,152 0,58 9,114 37,167 28,53 75,103 150,149 76,47 183,91 301,127 118,36 247,63 367,76 118,13 263,13 399,4 144,-9 278,-28 358,-53 54,-16 86,-41 102,-67 7,-11 11,-23 12,-35 1,-12 0,-23 -3,-34 -6,-21 -21,-70 -40,-82 -30,-19 -100,-41 -132,-23 -35,19 -59,28 -104,81 -86,101 -192,154 -312,148 z m -448,-576 442,14 c -3,-91 -19,-168 -55,-225 -36,-58 -23,-95 -106,-104 v 0 c -10,-1 -20,-1 -30,-1 -70,2 -129,36 -172,87 -43,52 -71,121 -78,192 -1,12 -2,25 -2,37 z m 452,34 -462,-14 h -10 v -10 c 0,-16 0,-33 2,-49 8,-75 37,-148 82,-203 46,-56 108,-73 185,-74 10,0 21,0 32,1 90,9 84,30 123,93 39,62 56,147 58,246 v 10 z"
       id="path21"
       inkscape:connector-curvature="0"
       style="fill:#2e2e2d;fill-rule:nonzero" /><path
       class="fil2"
       d="m 10829,10113 c 113,5 243,21 324,-79 81,-101 139,-145 198,-106 60,39 75,147 -66,192 -141,45 -464,71 -681,46 -218,-25 -464,-104 -602,-192 -138,-88 -172,-193 -172,-304 0,-112 72,-194 172,-271 100,-77 239,-142 403,-172 164,-30 394,-41 562,-7 169,34 271,71 367,144 96,73 176,135 189,279 -245,11 -860,-2 -1091,7 -17,160 -11,267 66,357 77,90 217,101 331,106 z m -381,-543 c 159,4 318,9 476,13 -3,-182 -60,-311 -215,-327 -162,-18 -265,153 -261,314 z"
       id="path23"
       inkscape:connector-curvature="0"
       style="fill:#c32328" /><polygon
       class="fil0"
       points="12481,10178 11874,10178 11874,8893 12481,8893 "
       id="polygon25"
       style="fill:#fefefe" /><path
       class="fil1"
       d="m 11874,8883 h 608 10 v 10 1285 10 h -10 -608 -10 v -10 -1285 -10 z m 598,20 h -588 v 1265 h 588 z"
       id="path27"
       inkscape:connector-curvature="0"
       style="fill:#2e2e2d;fill-rule:nonzero" /><polygon
       class="fil2"
       points="12462,10178 11874,10178 11874,8955 12462,8955 "
       id="polygon29"
       style="fill:#c32328" /><path
       class="fil0"
       d="m 15469,9354 v 807 h -576 v -807 c -42,-102 -58,-93 -139,-93 -81,0 -184,50 -290,93 v 807 h -576 v -807 c -46,-127 -40,-108 -131,-101 -90,7 -256,55 -338,138 v 770 h -576 v -999 h 576 v 130 c 114,-55 216,-107 318,-137 114,-34 266,-31 377,0 111,31 180,86 301,151 92,-51 199,-106 322,-135 122,-29 346,-36 481,-1 136,35 199,115 251,184 z"
       id="path31"
       inkscape:connector-curvature="0"
       style="fill:#fefefe" /><path
       class="fil1"
       d="m 15479,9354 v 807 10 h -10 -576 -10 v -10 -806 c -36,-86 -51,-86 -112,-85 v 0 h -17 c -67,0 -150,35 -237,72 -14,6 -29,12 -42,18 v 801 10 h -10 -576 -10 v -10 -806 c -37,-101 -38,-101 -89,-96 -9,1 -19,2 -31,3 -50,4 -123,21 -192,49 -53,21 -103,50 -138,84 v 766 10 h -10 -576 -10 v -10 -999 -10 h 10 576 10 v 10 114 l 13,-6 v 0 c 103,-50 198,-96 293,-125 57,-17 122,-25 188,-25 68,0 137,9 195,25 79,22 137,56 206,96 28,17 59,34 92,52 45,-25 93,-50 145,-73 54,-24 112,-45 174,-60 65,-15 158,-25 251,-25 84,0 169,7 235,24 69,18 120,47 161,81 40,34 69,71 96,106 l 2,3 v 3 z m -20,797 v -794 c -25,-33 -53,-69 -90,-100 -38,-32 -87,-60 -153,-77 -63,-16 -147,-23 -230,-23 -92,0 -183,9 -247,24 -61,14 -118,35 -171,59 -53,24 -103,50 -148,75 l -5,3 -5,-3 c -37,-20 -69,-38 -98,-55 -68,-40 -125,-73 -202,-94 -56,-16 -123,-24 -189,-24 -64,0 -127,8 -182,24 -93,28 -187,74 -290,124 v 0 l -27,13 -14,7 v -16 -120 h -556 v 979 h 556 v -760 -4 l 3,-3 c 37,-37 91,-68 147,-91 71,-29 146,-46 197,-50 12,-1 22,-2 30,-3 67,-7 68,-8 111,110 l 1,2 v 2 797 h 556 v -797 -7 l 6,-3 c 17,-7 33,-14 48,-20 90,-38 175,-74 245,-74 12,0 14,0 17,0 72,-1 90,-1 131,99 l 1,2 v 2 797 h 556 z"
       id="path33"
       inkscape:connector-curvature="0"
       style="fill:#2e2e2d;fill-rule:nonzero" /><path
       class="fil2"
       d="m 15436,9408 v 754 h -569 v -754 c -41,-95 -54,-126 -134,-126 -80,0 -205,54 -289,126 v 754 h -569 v -754 c -45,-119 -111,-124 -200,-117 -89,7 -182,75 -263,152 v 719 h -569 v -933 h 569 v 122 c 112,-52 214,-100 314,-128 113,-32 262,-29 372,0 110,29 177,80 298,141 90,-47 197,-99 318,-126 121,-27 341,-34 475,-1 134,33 196,107 248,172 z"
       id="path35"
       inkscape:connector-curvature="0"
       style="fill:#c32328" /><path
       class="fil0"
       d="m 17326,9429 c 0,-161 -222,-239 -445,-266 -224,-26 -707,-23 -861,49 -154,72 -177,93 -169,174 7,81 179,118 256,85 77,-33 55,-173 120,-221 65,-48 183,-46 271,-37 87,8 194,15 256,86 v 302 c -447,-35 -634,17 -771,53 -137,36 -262,104 -261,289 1,186 292,225 453,218 161,-7 456,-111 579,-118 v 120 h 572 l 2,-733 z m -789,223 c 200,6 208,79 208,175 0,97 -9,179 -208,175 -115,-2 -180,-58 -180,-155 0,-97 58,-200 180,-196 z"
       id="path37"
       inkscape:connector-curvature="0"
       style="fill:#fefefe" /><path
       class="fil1"
       d="m 17316,9429 c 0,-68 -43,-122 -110,-162 -84,-50 -205,-80 -326,-94 -124,-15 -329,-20 -512,-10 -145,8 -277,26 -344,57 -76,35 -119,58 -142,81 -21,22 -25,45 -21,82 v 0 c 0,5 2,10 4,15 11,25 40,44 76,57 37,13 80,18 117,15 17,-2 32,-5 45,-10 37,-16 49,-61 61,-107 12,-44 24,-88 57,-112 34,-25 82,-37 132,-42 49,-4 102,-2 146,2 l 14,1 c 86,8 187,17 248,88 l 3,3 v 4 302 11 l -11,-1 c -438,-34 -625,15 -761,50 l -7,2 c -67,18 -131,43 -178,86 -46,43 -76,104 -76,194 0,2 0,4 0,6 3,79 65,130 146,160 v 0 c 83,31 185,42 265,42 11,0 22,0 32,-1 86,-4 213,-36 331,-66 99,-25 191,-49 248,-52 l 11,-1 v 11 110 h 552 l 2,-723 z m -100,-179 c 73,44 120,102 120,179 l -2,733 v 10 h -10 -572 -10 v -10 -109 c -55,5 -141,27 -233,51 -118,30 -246,63 -335,67 -10,0 -21,1 -33,1 -82,0 -187,-11 -272,-43 v 0 c -88,-33 -155,-89 -159,-178 0,-2 0,-5 0,-7 v 0 c 0,-96 32,-162 82,-208 50,-46 117,-73 186,-91 l 7,-2 c 136,-36 323,-85 757,-52 v -287 c -57,-62 -151,-70 -232,-78 l -14,-1 v 0 c -43,-4 -94,-7 -142,-2 -47,4 -91,15 -122,38 -27,20 -38,61 -49,101 -14,51 -27,101 -73,120 -14,6 -32,10 -51,12 -39,4 -86,-2 -125,-16 -41,-14 -75,-37 -88,-68 -3,-7 -5,-14 -5,-22 -4,-44 0,-71 27,-98 25,-25 70,-49 148,-85 69,-32 203,-51 351,-59 184,-10 390,-5 515,10 124,15 248,45 334,97 z m -678,392 c 103,3 157,24 186,57 29,34 32,78 32,128 0,50 -2,97 -32,132 -29,34 -83,55 -187,54 -60,-1 -107,-16 -139,-44 -33,-28 -50,-69 -50,-120 0,-2 0,-4 0,-7 1,-49 17,-98 47,-136 31,-38 76,-64 137,-64 v 0 z m 171,70 c -25,-29 -75,-47 -172,-50 h -6 v 0 c -54,0 -94,23 -121,56 -27,34 -41,79 -43,124 v 7 c 0,45 15,81 43,105 29,25 72,38 127,39 96,2 146,-17 171,-47 25,-30 27,-72 27,-119 0,-46 -2,-87 -27,-115 z"
       id="path39"
       inkscape:connector-curvature="0"
       style="fill:#2e2e2d;fill-rule:nonzero" /><path
       class="fil2"
       d="m 17279,9465 c 0,-153 -208,-228 -417,-253 -210,-25 -663,-22 -807,46 -144,68 -166,88 -159,165 7,77 168,113 240,81 72,-32 52,-164 112,-210 61,-46 172,-44 254,-36 82,8 181,14 240,81 v 287 c -419,-33 -595,16 -723,50 -128,34 -245,99 -245,276 1,177 274,214 425,207 151,-7 427,-105 542,-112 v 114 h 539 l -1,-697 z m -739,213 c 187,5 195,75 195,167 0,92 -8,170 -195,167 -108,-2 -169,-55 -169,-147 0,-92 54,-190 169,-187 z"
       id="path41"
       inkscape:connector-curvature="0"
       style="fill:#c32328" /><polygon
       class="fil0"
       points="18513,9472 18929,9149 19157,9147 18624,9555 19206,10162 18503,10162 18125,9821 17690,10162 17440,10162 18020,9694 17486,9147 18213,9147 "
       id="polygon43"
       style="fill:#fefefe" /><path
       class="fil1"
       d="m 17486,9137 h 727 4 l 3,3 293,318 409,-318 3,-2 h 3 l 228,-2 h 30 l -24,18 -524,402 574,598 16,17 h -23 -703 -4 l -3,-3 -372,-335 -428,336 -3,2 h -3 -250 -28 l 22,-18 572,-461 -527,-539 -17,-17 h 24 z m 723,20 h -699 l 518,530 8,8 -9,7 -559,450 h 218 l 432,-339 7,-5 6,6 375,338 h 676 l -565,-589 -8,-8 9,-7 509,-391 -195,2 -414,321 -7,6 -6,-7 z"
       id="path45"
       inkscape:connector-curvature="0"
       style="fill:#2e2e2d;fill-rule:nonzero" /><polygon
       class="fil2"
       points="18484,9517 18853,9214 19068,9213 18589,9591 19126,10162 18503,10162 18146,9836 17739,10162 17491,10162 18076,9704 17583,9214 18191,9213 "
       id="polygon47"
       style="fill:#c32328" /></g></svg>